<svg xmlns="http://www.w3.org/2000/svg" width="335" height="156" viewBox="0 0 335 156">
    <g fill="none" fill-rule="evenodd">
        <g>
            <g>
                <path fill="#000" d="M37.403 8.15c.384.243.834.383 1.444.383.807 0 1.473-.412 1.473-1.338 0-1.282-3.002-1.44-3.002-3.152 0-1.048.92-1.703 2.073-1.703.319 0 .835.047 1.285.215l-.102.59c-.291-.16-.751-.244-1.192-.244-.676 0-1.416.28-1.416 1.123 0 1.31 3.002 1.32 3.002 3.227 0 1.32-1.135 1.843-2.15 1.843-.637 0-1.134-.131-1.481-.28l.066-.664M46.052 4.847c-.318-.14-.703-.243-1.022-.243-1.154 0-1.802.833-1.802 1.992 0 1.086.657 1.994 1.736 1.994.375 0 .723-.085 1.079-.216l.056.553c-.404.14-.779.167-1.229.167-1.54 0-2.29-1.17-2.29-2.498 0-1.468.948-2.497 2.365-2.497.573 0 .985.131 1.154.186l-.047.562M47.835 1.966h.591v3.05h.019c.254-.524.787-.917 1.491-.917 1.286 0 1.633.852 1.633 2.03v2.854h-.591V6.138c0-.823-.16-1.534-1.135-1.534-1.05 0-1.417.991-1.417 1.824v2.555h-.591V1.966M58.7 8.983L57.986 8.983 56.682 4.857 56.663 4.857 55.359 8.983 54.646 8.983 53.109 4.21 53.755 4.21 55.012 8.337 55.032 8.337 56.363 4.21 57.076 4.21 58.344 8.337 58.361 8.337 59.684 4.21 60.275 4.21 58.7 8.983M64.732 6.26c0-.833-.338-1.656-1.22-1.656-.872 0-1.407.87-1.407 1.656h2.627zm.29 2.572c-.412.17-.946.262-1.387.262-1.587 0-2.177-1.066-2.177-2.498 0-1.458.807-2.497 2.017-2.497 1.352 0 1.904 1.085 1.904 2.367v.299h-3.274c0 1.01.545 1.825 1.576 1.825.432 0 1.06-.178 1.342-.357v.599zM67.237 8.981h.592v-4.77h-.592v4.77zm0-6.042h.592v-.786h-.592v.786zM69.612 8.486L72.492 4.716 69.724 4.716 69.724 4.21 73.176 4.21 73.176 4.716 70.297 8.477 73.176 8.477 73.176 8.983 69.612 8.983 69.612 8.486M77.866 6.26c0-.833-.337-1.656-1.219-1.656-.873 0-1.408.87-1.408 1.656h2.627zm.292 2.572c-.413.17-.948.262-1.39.262-1.585 0-2.175-1.066-2.175-2.498 0-1.458.806-2.497 2.017-2.497 1.35 0 1.904 1.085 1.904 2.367v.299h-3.275c0 1.01.545 1.825 1.577 1.825.431 0 1.06-.178 1.342-.357v.599zM80.372 5.277c0-.523 0-.72-.036-1.067h.59v.918h.019c.216-.533.618-1.029 1.229-1.029.14 0 .31.028.412.056v.617c-.121-.037-.281-.056-.431-.056-.94 0-1.192 1.049-1.192 1.908v2.359h-.591V5.277M84.228 8.981h.591v-4.77h-.591v4.77zm0-6.042h.591v-.786h-.591v.786zM86.677 8.29c.357.178.788.3 1.248.3.563 0 1.06-.31 1.06-.852 0-1.132-2.299-.955-2.299-2.338 0-.945.769-1.3 1.558-1.3.253 0 .76.055 1.182.214l-.057.515c-.31-.141-.731-.225-1.06-.225-.609 0-1.032.187-1.032.796 0 .887 2.355.776 2.355 2.338 0 1.01-.948 1.356-1.67 1.356-.46 0-.92-.055-1.34-.224l.055-.58M94.538 4.847c-.319-.14-.703-.243-1.021-.243-1.154 0-1.803.833-1.803 1.992 0 1.086.657 1.994 1.736 1.994.375 0 .723-.085 1.08-.216l.056.553c-.404.14-.78.167-1.23.167-1.539 0-2.289-1.17-2.289-2.498 0-1.468.948-2.497 2.365-2.497.572 0 .985.131 1.154.186l-.048.562M96.321 1.966h.592v3.05h.018c.253-.524.788-.917 1.492-.917 1.285 0 1.632.852 1.632 2.03v2.854h-.59V6.138c0-.823-.16-1.534-1.136-1.534-1.05 0-1.416.991-1.416 1.824v2.555h-.592V1.966M105.187 6.26c0-.833-.337-1.656-1.219-1.656-.873 0-1.408.87-1.408 1.656h2.627zm.292 2.572c-.413.17-.948.262-1.39.262-1.585 0-2.176-1.066-2.176-2.498 0-1.458.807-2.497 2.018-2.497 1.35 0 1.904 1.085 1.904 2.367v.299h-3.275c0 1.01.544 1.825 1.577 1.825.431 0 1.06-.178 1.342-.357v.599zM110.816 2.452L114.025 2.452 114.025 3.013 111.464 3.013 111.464 5.343 113.893 5.343 113.893 5.905 111.464 5.905 111.464 8.42 114.138 8.42 114.138 8.983 110.816 8.983 110.816 2.452M116.174 8.981h.591v-4.77h-.591v4.77zm0-6.042h.591v-.786h-.591v.786zM120.771 8.59c1.05 0 1.417-1.123 1.417-1.994 0-.87-.366-1.992-1.417-1.992-1.126 0-1.418 1.066-1.418 1.992 0 .927.292 1.994 1.418 1.994zm2.008.393h-.591v-.758h-.019c-.319.607-.808.869-1.491.869-1.315 0-1.971-1.085-1.971-2.498 0-1.45.563-2.497 1.97-2.497.938 0 1.407.682 1.492.917h.019v-3.05h.591v7.017zM126.682 8.477c1.069 0 1.454-1.01 1.454-1.88 0-1.151-.338-1.993-1.417-1.993-1.125 0-1.417 1.066-1.417 1.992 0 .935.376 1.88 1.38 1.88zm2.045.113c0 1.328-.6 2.412-2.242 2.412-.629 0-1.201-.177-1.445-.251l.046-.59c.367.187.892.336 1.408.336 1.52 0 1.652-1.103 1.652-2.45h-.019c-.319.691-.845.936-1.454.936-1.53 0-2.018-1.33-2.018-2.387 0-1.45.562-2.497 1.97-2.497.638 0 1.05.084 1.492.655h.019V4.21h.591v4.38zM133.802 6.26c0-.833-.337-1.656-1.219-1.656-.873 0-1.408.87-1.408 1.656h2.627zm.292 2.572c-.413.17-.948.262-1.39.262-1.585 0-2.175-1.066-2.175-2.498 0-1.458.806-2.497 2.017-2.497 1.35 0 1.904 1.085 1.904 2.367v.299h-3.275c0 1.01.545 1.825 1.577 1.825.431 0 1.06-.178 1.342-.357v.599zM136.308 5.334c0-.366 0-.739-.038-1.124h.573v.853h.019c.196-.431.552-.964 1.548-.964 1.182 0 1.631.786 1.631 1.833v3.05h-.59v-2.9c0-.898-.319-1.478-1.135-1.478-1.08 0-1.417.945-1.417 1.74v2.639h-.591v-3.65M144.124 8.59c1.031 0 1.585-.889 1.585-1.994 0-1.103-.554-1.992-1.585-1.992-1.033 0-1.587.89-1.587 1.992 0 1.105.554 1.994 1.587 1.994zm0-4.49c1.548 0 2.233 1.196 2.233 2.496s-.685 2.498-2.233 2.498-2.233-1.197-2.233-2.498c0-1.3.685-2.497 2.233-2.497zM147.838 8.29c.357.178.79.3 1.248.3.563 0 1.06-.31 1.06-.852 0-1.132-2.298-.955-2.298-2.338 0-.945.77-1.3 1.557-1.3.254 0 .76.055 1.182.214l-.055.515c-.31-.141-.732-.225-1.06-.225-.61 0-1.033.187-1.033.796 0 .887 2.355.776 2.355 2.338 0 1.01-.948 1.356-1.67 1.356-.46 0-.92-.055-1.342-.224l.056-.58M152.22 8.29c.356.178.789.3 1.247.3.563 0 1.06-.31 1.06-.852 0-1.132-2.299-.955-2.299-2.338 0-.945.77-1.3 1.558-1.3.254 0 .76.055 1.182.214l-.056.515c-.31-.141-.73-.225-1.06-.225-.61 0-1.032.187-1.032.796 0 .887 2.355.776 2.355 2.338 0 1.01-.947 1.356-1.67 1.356-.46 0-.92-.055-1.342-.224l.057-.58M159.885 6.26c0-.833-.339-1.656-1.22-1.656-.873 0-1.408.87-1.408 1.656h2.628zm.29 2.572c-.412.17-.946.262-1.387.262-1.586 0-2.177-1.066-2.177-2.498 0-1.458.806-2.497 2.016-2.497 1.352 0 1.906 1.085 1.906 2.367v.299h-3.276c0 1.01.545 1.825 1.577 1.825.431 0 1.06-.178 1.341-.357v.599zM162.39 5.334c0-.366 0-.739-.038-1.124h.573v.853h.019c.196-.431.552-.964 1.548-.964 1.181 0 1.631.786 1.631 1.833v3.05h-.59v-2.9c0-.898-.319-1.478-1.135-1.478-1.08 0-1.417.945-1.417 1.74v2.639h-.591v-3.65M167.972 8.29c.357.178.788.3 1.248.3.563 0 1.06-.31 1.06-.852 0-1.132-2.299-.955-2.299-2.338 0-.945.77-1.3 1.558-1.3.253 0 .76.055 1.182.214l-.057.515c-.308-.141-.731-.225-1.06-.225-.609 0-1.031.187-1.031.796 0 .887 2.355.776 2.355 2.338 0 1.01-.949 1.356-1.67 1.356-.46 0-.92-.055-1.343-.224l.057-.58M175.835 4.847c-.32-.14-.704-.243-1.023-.243-1.154 0-1.802.833-1.802 1.992 0 1.086.656 1.994 1.735 1.994.377 0 .723-.085 1.08-.216l.056.553c-.403.14-.78.167-1.228.167-1.54 0-2.29-1.17-2.29-2.498 0-1.468.947-2.497 2.365-2.497.571 0 .984.131 1.153.186l-.046.562M177.617 1.966h.59v3.05h.02c.253-.524.788-.917 1.491-.917 1.285 0 1.633.852 1.633 2.03v2.854h-.59V6.138c0-.823-.16-1.534-1.136-1.534-1.051 0-1.417.991-1.417 1.824v2.555h-.59V1.966M186.257 6.578h-.167c-1.024 0-2.242.103-2.242 1.15 0 .628.449.862.993.862 1.389 0 1.416-1.208 1.416-1.722v-.29zm.057 1.637h-.018c-.263.57-.93.879-1.52.879-1.36 0-1.577-.917-1.577-1.347 0-1.6 1.708-1.674 2.946-1.674h.112V5.83c0-.814-.29-1.226-1.088-1.226-.496 0-.965.112-1.407.393v-.571c.366-.177.985-.327 1.407-.327 1.182 0 1.68.533 1.68 1.777v2.106c0 .382 0 .673.047 1h-.582v-.767zM189.39 4.716h-.965V4.21h.966v-.345c0-1.001.037-2.011 1.267-2.011.187 0 .44.027.553.093l-.037.515c-.123-.066-.3-.103-.47-.103-.807 0-.722.87-.722 1.44v.411h1.079v.506h-1.079v4.267h-.591V4.716M194.907 4.716h-1.088v3.087c0 .43.16.787.64.787.224 0 .374-.047.542-.113l.039.486c-.142.056-.432.13-.723.13-1.05 0-1.09-.719-1.09-1.589V4.716h-.937V4.21h.938V3.06l.591-.205V4.21h1.088v.506M42 16.085c-.413-.214-1.005-.28-1.465-.28-1.698 0-2.654 1.198-2.654 2.816 0 1.646.929 2.815 2.654 2.815.433 0 1.09-.056 1.464-.28l.038.56c-.356.216-1.088.283-1.502.283-2.064 0-3.302-1.357-3.302-3.378 0-1.983 1.277-3.377 3.302-3.377.385 0 1.164.066 1.502.243l-.038.598M46.062 21.494c1.032 0 1.585-.89 1.585-1.994 0-1.103-.553-1.992-1.585-1.992s-1.586.889-1.586 1.992c0 1.105.554 1.994 1.586 1.994zm0-4.491c1.549 0 2.233 1.197 2.233 2.497 0 1.3-.684 2.499-2.233 2.499-1.548 0-2.232-1.199-2.232-2.499s.684-2.497 2.232-2.497zM50.143 18.237c0-.365 0-.738-.037-1.122h.572v.852h.019c.197-.432.554-.964 1.548-.964 1.182 0 1.632.785 1.632 1.833v3.05h-.59v-2.9c0-.898-.32-1.478-1.136-1.478-1.08 0-1.417.945-1.417 1.739v2.64h-.591v-3.65M56.496 17.62h-.967v-.505h.967v-.346c0-1.002.036-2.011 1.265-2.011.189 0 .441.027.554.093l-.038.515c-.12-.066-.3-.104-.468-.104-.807 0-.723.87-.723 1.44v.413h1.079v.505h-1.08v4.266h-.59V17.62M61.88 15.271h.741l-1.182 1.348h-.43l.872-1.348zm.985 3.892c0-.832-.338-1.655-1.22-1.655-.872 0-1.407.87-1.407 1.655h2.627zm.291 2.574c-.412.168-.948.262-1.389.262-1.585 0-2.176-1.068-2.176-2.499 0-1.459.807-2.497 2.017-2.497 1.35 0 1.904 1.085 1.904 2.366v.3h-3.274c0 1.01.545 1.825 1.577 1.825.43 0 1.06-.179 1.341-.356v.599zM67.152 21.494c1.052 0 1.417-1.124 1.417-1.994 0-.87-.365-1.992-1.417-1.992-1.125 0-1.416 1.066-1.416 1.992 0 .926.29 1.994 1.416 1.994zm2.008.392h-.591v-.758h-.018c-.32.609-.807.87-1.493.87-1.312 0-1.969-1.085-1.969-2.498 0-1.45.563-2.497 1.97-2.497.938 0 1.407.682 1.492.916h.018v-3.05h.591v7.017zM73.251 15.271h.742L72.81 16.62h-.431l.872-1.348zm.984 3.892c0-.832-.336-1.655-1.219-1.655-.872 0-1.408.87-1.408 1.655h2.627zm.292 2.574c-.413.168-.947.262-1.388.262-1.587 0-2.177-1.068-2.177-2.499 0-1.459.806-2.497 2.017-2.497 1.351 0 1.905 1.085 1.905 2.366v.3h-3.276c0 1.01.546 1.825 1.577 1.825.431 0 1.06-.179 1.342-.356v.599zM76.741 18.181c0-.524 0-.72-.036-1.066h.59v.916h.019c.216-.532.62-1.028 1.229-1.028.141 0 .31.027.412.056v.617c-.121-.037-.281-.056-.431-.056-.938 0-1.192 1.047-1.192 1.909v2.357h-.591v-3.705M83.29 19.483h-.169c-1.022 0-2.243.102-2.243 1.15 0 .626.452.86.996.86 1.387 0 1.416-1.207 1.416-1.721v-.29zm.056 1.635h-.018c-.263.571-.93.88-1.52.88-1.361 0-1.576-.917-1.576-1.347 0-1.6 1.708-1.675 2.946-1.675h.112v-.243c0-.814-.291-1.225-1.088-1.225-.497 0-.966.112-1.407.393v-.571c.366-.177.985-.327 1.407-.327 1.182 0 1.68.532 1.68 1.776v2.106c0 .384 0 .673.046 1.001h-.582v-.768zM88.084 17.62h-1.088v3.087c0 .431.159.787.638.787.225 0 .375-.048.544-.114l.037.488c-.14.055-.431.13-.721.13-1.052 0-1.09-.72-1.09-1.59V17.62h-.938v-.505h.939v-1.15l.591-.206v1.356h1.088v.505M89.876 21.886h.591v-4.77h-.591v4.77zm0-6.044h.591v-.785h-.591v.785zM94.557 21.494c1.033 0 1.585-.89 1.585-1.994 0-1.103-.552-1.992-1.585-1.992-1.032 0-1.586.889-1.586 1.992 0 1.105.554 1.994 1.586 1.994zm0-4.491c1.55 0 2.234 1.197 2.234 2.497 0 1.3-.685 2.499-2.234 2.499-1.547 0-2.232-1.199-2.232-2.499s.685-2.497 2.232-2.497zM98.64 18.237c0-.365 0-.738-.038-1.122h.571v.852h.019c.197-.432.554-.964 1.548-.964 1.183 0 1.633.785 1.633 1.833v3.05h-.592v-2.9c0-.898-.319-1.478-1.134-1.478-1.08 0-1.418.945-1.418 1.739v2.64h-.59v-3.65M107.468 21.193c.356.178.788.3 1.248.3.562 0 1.06-.309 1.06-.85 0-1.133-2.298-.956-2.298-2.34 0-.945.769-1.3 1.556-1.3.254 0 .76.056 1.182.214l-.056.515c-.31-.14-.732-.224-1.06-.224-.61 0-1.032.187-1.032.795 0 .89 2.356.777 2.356 2.34 0 1.009-.948 1.356-1.67 1.356-.461 0-.92-.057-1.342-.225l.056-.58M115.949 20.763c0 .365 0 .74.037 1.123h-.572v-.851h-.02c-.195.43-.552.964-1.547.964-1.182 0-1.633-.787-1.633-1.834v-3.05h.591v2.9c0 .898.32 1.479 1.136 1.479 1.079 0 1.416-.947 1.416-1.74v-2.639h.592v3.648M118.163 21.886h.592v-4.77h-.592v4.77zm0-6.044h.592v-.785h-.592v.785zM120.611 21.193c.357.178.79.3 1.248.3.564 0 1.06-.309 1.06-.85 0-1.133-2.298-.956-2.298-2.34 0-.945.77-1.3 1.557-1.3.254 0 .76.056 1.183.214l-.057.515c-.31-.14-.731-.224-1.06-.224-.61 0-1.033.187-1.033.795 0 .89 2.356.777 2.356 2.34 0 1.009-.948 1.356-1.67 1.356-.46 0-.92-.057-1.342-.225l.056-.58M124.994 21.193c.356.178.787.3 1.247.3.563 0 1.06-.309 1.06-.85 0-1.133-2.299-.956-2.299-2.34 0-.945.77-1.3 1.558-1.3.253 0 .76.056 1.182.214l-.056.515c-.31-.14-.732-.224-1.06-.224-.61 0-1.032.187-1.032.795 0 .89 2.355.777 2.355 2.34 0 1.009-.949 1.356-1.67 1.356-.46 0-.92-.057-1.343-.225l.058-.58M132.658 19.163c0-.832-.337-1.655-1.219-1.655-.874 0-1.408.87-1.408 1.655h2.627zm.291 2.574c-.413.168-.947.262-1.389.262-1.585 0-2.176-1.068-2.176-2.499 0-1.459.806-2.497 2.016-2.497 1.352 0 1.906 1.085 1.906 2.366v.3h-3.275c0 1.01.544 1.825 1.576 1.825.432 0 1.06-.179 1.342-.356v.599zM42 28.989c-.413-.214-1.005-.28-1.465-.28-1.698 0-2.654 1.198-2.654 2.816 0 1.646.929 2.815 2.654 2.815.433 0 1.09-.056 1.464-.28l.038.56c-.356.216-1.088.282-1.502.282-2.064 0-3.302-1.356-3.302-3.377 0-1.984 1.277-3.378 3.302-3.378.385 0 1.164.065 1.502.244l-.038.598M46.062 34.397c1.032 0 1.585-.889 1.585-1.993s-.553-1.993-1.585-1.993-1.586.89-1.586 1.993c0 1.104.554 1.993 1.586 1.993zm0-4.49c1.549 0 2.233 1.196 2.233 2.497 0 1.3-.684 2.498-2.233 2.498-1.548 0-2.232-1.198-2.232-2.498 0-1.3.684-2.497 2.232-2.497zM50.143 31.14c0-.364 0-.737-.037-1.121h.572v.851h.019c.197-.431.554-.963 1.548-.963 1.182 0 1.632.785 1.632 1.834v3.049h-.59v-2.9c0-.899-.32-1.479-1.136-1.479-1.08 0-1.417.946-1.417 1.74v2.639h-.591v-3.65M56.496 30.524h-.967v-.505h.967v-.347c0-1 .036-2.01 1.265-2.01.189 0 .441.027.554.093l-.038.515c-.12-.066-.3-.104-.468-.104-.807 0-.723.87-.723 1.441v.412h1.079v.505h-1.08v4.266h-.59v-4.266M62.865 32.067c0-.833-.338-1.656-1.22-1.656-.872 0-1.407.87-1.407 1.656h2.627zm.291 2.573c-.412.169-.948.262-1.389.262-1.585 0-2.176-1.067-2.176-2.498 0-1.459.807-2.497 2.017-2.497 1.35 0 1.904 1.084 1.904 2.366v.3h-3.274c0 1.01.545 1.824 1.577 1.824.43 0 1.06-.178 1.341-.355v.598zM67.152 34.397c1.052 0 1.417-1.123 1.417-1.993 0-.87-.365-1.993-1.417-1.993-1.125 0-1.416 1.066-1.416 1.993 0 .926.29 1.993 1.416 1.993zm2.008.393h-.591v-.758h-.018c-.32.608-.807.87-1.493.87-1.312 0-1.969-1.086-1.969-2.498 0-1.45.563-2.497 1.97-2.497.938 0 1.407.683 1.492.916h.018v-3.05h.591v7.017zM74.235 32.067c0-.833-.336-1.656-1.219-1.656-.872 0-1.408.87-1.408 1.656h2.627zm.292 2.573c-.413.169-.947.262-1.388.262-1.587 0-2.177-1.067-2.177-2.498 0-1.459.806-2.497 2.017-2.497 1.351 0 1.905 1.084 1.905 2.366v.3h-3.276c0 1.01.546 1.824 1.577 1.824.431 0 1.06-.178 1.342-.355v.598zM76.741 31.085c0-.524 0-.72-.036-1.066h.59v.916h.019c.216-.532.62-1.028 1.229-1.028.141 0 .31.027.412.056v.617c-.121-.038-.281-.056-.431-.056-.938 0-1.192 1.048-1.192 1.908v2.358h-.591v-3.705M83.29 32.385h-.169c-1.022 0-2.243.104-2.243 1.15 0 .628.452.862.996.862 1.387 0 1.416-1.207 1.416-1.721v-.29zm.056 1.638h-.018c-.263.57-.93.88-1.52.88-1.361 0-1.576-.918-1.576-1.348 0-1.6 1.708-1.675 2.946-1.675h.112v-.243c0-.814-.291-1.226-1.088-1.226-.497 0-.966.113-1.407.393v-.57c.366-.178.985-.327 1.407-.327 1.182 0 1.68.532 1.68 1.777v2.105c0 .384 0 .673.046 1.001h-.582v-.767zM85.58 34.294L88.459 30.524 85.692 30.524 85.692 30.019 89.144 30.019 89.144 30.524 86.265 34.284 89.144 34.284 89.144 34.79 85.58 34.79 85.58 34.294M90.917 34.79h.592v-4.771h-.592v4.771zm0-6.044h.592v-.786h-.592v.786zM95.598 34.397c1.033 0 1.586-.889 1.586-1.993s-.553-1.993-1.586-1.993c-1.031 0-1.585.89-1.585 1.993 0 1.104.554 1.993 1.585 1.993zm0-4.49c1.55 0 2.235 1.196 2.235 2.497 0 1.3-.685 2.498-2.235 2.498-1.546 0-2.231-1.198-2.231-2.498 0-1.3.685-2.497 2.231-2.497zM99.68 31.14c0-.364 0-.737-.037-1.121h.572v.851h.018c.198-.431.554-.963 1.548-.963 1.183 0 1.633.785 1.633 1.834v3.049h-.591v-2.9c0-.899-.319-1.479-1.134-1.479-1.08 0-1.418.946-1.418 1.74v2.639h-.59v-3.65M108.546 32.067c0-.833-.338-1.656-1.22-1.656-.872 0-1.407.87-1.407 1.656h2.627zm.29 2.573c-.412.169-.946.262-1.388.262-1.586 0-2.176-1.067-2.176-2.498 0-1.459.807-2.497 2.017-2.497 1.352 0 1.904 1.084 1.904 2.366v.3h-3.274c0 1.01.545 1.824 1.576 1.824.432 0 1.06-.178 1.342-.355v.598zM114.186 33.957c.384.243.834.383 1.444.383.808 0 1.473-.411 1.473-1.337 0-1.282-3.002-1.44-3.002-3.153 0-1.047.919-1.703 2.073-1.703.319 0 .835.048 1.285.216l-.102.59c-.292-.16-.752-.245-1.192-.245-.675 0-1.417.281-1.417 1.124 0 1.309 3.002 1.319 3.002 3.228 0 1.319-1.135 1.842-2.149 1.842-.637 0-1.134-.13-1.481-.282l.066-.663M121.381 34.79L120.686 34.79 119.063 30.019 119.711 30.019 121.034 34.144 121.053 34.144 122.442 30.019 123.061 30.019 121.381 34.79M124.617 34.79h.59v-4.771h-.59v4.771zm0-6.044h.59v-.786h-.59v.786zM126.992 34.294L129.872 30.524 127.104 30.524 127.104 30.019 130.556 30.019 130.556 30.524 127.677 34.284 130.556 34.284 130.556 34.79 126.992 34.79 126.992 34.294M131.889 34.294L134.77 30.524 132.002 30.524 132.002 30.019 135.454 30.019 135.454 30.524 132.574 34.284 135.454 34.284 135.454 34.79 131.889 34.79 131.889 34.294M140.144 32.067c0-.833-.338-1.656-1.22-1.656-.872 0-1.407.87-1.407 1.656h2.627zm.291 2.573c-.412.169-.946.262-1.389.262-1.585 0-2.175-1.067-2.175-2.498 0-1.459.806-2.497 2.016-2.497 1.352 0 1.905 1.084 1.905 2.366v.3h-3.275c0 1.01.545 1.824 1.577 1.824.431 0 1.06-.178 1.341-.355v.598zM142.65 31.085c0-.524 0-.72-.037-1.066h.59v.916h.02c.215-.532.618-1.028 1.228-1.028.142 0 .31.027.413.056v.617c-.121-.038-.281-.056-.431-.056-.938 0-1.192 1.048-1.192 1.908v2.358h-.591v-3.705M149.199 32.385h-.169c-1.023 0-2.243.104-2.243 1.15 0 .628.451.862.995.862 1.388 0 1.417-1.207 1.417-1.721v-.29zm.056 1.638h-.019c-.262.57-.929.88-1.52.88-1.36 0-1.576-.918-1.576-1.348 0-1.6 1.708-1.675 2.946-1.675h.113v-.243c0-.814-.292-1.226-1.088-1.226-.498 0-.967.113-1.408.393v-.57c.366-.178.985-.327 1.408-.327 1.182 0 1.68.532 1.68 1.777v2.105c0 .384 0 .673.045 1.001h-.581v-.767zM42 41.893c-.413-.215-1.005-.28-1.465-.28-1.698 0-2.654 1.196-2.654 2.815 0 1.646.929 2.816 2.654 2.816.433 0 1.09-.057 1.464-.28l.038.56c-.356.216-1.088.28-1.502.28-2.064 0-3.302-1.356-3.302-3.376 0-1.983 1.277-3.377 3.302-3.377.385 0 1.164.065 1.502.243l-.038.599M46.062 47.3c1.032 0 1.585-.888 1.585-1.993 0-1.103-.553-1.992-1.585-1.992s-1.586.89-1.586 1.992c0 1.105.554 1.993 1.586 1.993zm0-4.491c1.549 0 2.233 1.198 2.233 2.498 0 1.3-.684 2.498-2.233 2.498-1.548 0-2.232-1.197-2.232-2.498 0-1.3.684-2.498 2.232-2.498zM50.143 44.044c0-.365 0-.739-.037-1.123h.572v.852h.019c.197-.43.554-.964 1.548-.964 1.182 0 1.632.787 1.632 1.834v3.05h-.59v-2.9c0-.898-.32-1.478-1.136-1.478-1.08 0-1.417.944-1.417 1.74v2.637h-.591v-3.648M56.496 43.426h-.967v-.505h.967v-.345c0-1.001.036-2.011 1.265-2.011.189 0 .441.027.554.093l-.038.514c-.12-.065-.3-.102-.468-.102-.807 0-.723.87-.723 1.44v.411h1.079v.505h-1.08v4.266h-.59v-4.266M62.865 44.97c0-.832-.338-1.655-1.22-1.655-.872 0-1.407.87-1.407 1.656h2.627zm.291 2.573c-.412.17-.948.262-1.389.262-1.585 0-2.176-1.066-2.176-2.498 0-1.46.807-2.498 2.017-2.498 1.35 0 1.904 1.086 1.904 2.368v.299h-3.274c0 1.01.545 1.824 1.577 1.824.43 0 1.06-.177 1.341-.356v.599zM67.152 47.3c1.052 0 1.417-1.122 1.417-1.993 0-.87-.365-1.992-1.417-1.992-1.125 0-1.416 1.066-1.416 1.992 0 .927.29 1.993 1.416 1.993zm2.008.392h-.591v-.758h-.018c-.32.609-.807.87-1.493.87-1.312 0-1.969-1.084-1.969-2.497 0-1.45.563-2.498 1.97-2.498.938 0 1.407.683 1.492.918h.018v-3.051h.591v7.016zM74.235 44.97c0-.832-.336-1.655-1.219-1.655-.872 0-1.408.87-1.408 1.656h2.627zm.292 2.573c-.413.17-.947.262-1.388.262-1.587 0-2.177-1.066-2.177-2.498 0-1.46.806-2.498 2.017-2.498 1.351 0 1.905 1.086 1.905 2.368v.299h-3.276c0 1.01.546 1.824 1.577 1.824.431 0 1.06-.177 1.342-.356v.599zM76.741 43.988c0-.523 0-.72-.036-1.067h.59v.918h.019c.216-.534.62-1.03 1.229-1.03.141 0 .31.029.412.056v.618c-.121-.037-.281-.057-.431-.057-.938 0-1.192 1.049-1.192 1.909v2.357h-.591v-3.704M83.29 45.289h-.169c-1.022 0-2.243.103-2.243 1.15 0 .628.452.86.996.86 1.387 0 1.416-1.206 1.416-1.72v-.29zm.056 1.637h-.018c-.263.57-.93.879-1.52.879-1.361 0-1.576-.917-1.576-1.347 0-1.6 1.708-1.674 2.946-1.674h.112v-.243c0-.814-.291-1.226-1.088-1.226-.497 0-.966.111-1.407.393v-.571c.366-.178.985-.328 1.407-.328 1.182 0 1.68.534 1.68 1.778v2.106c0 .382 0 .673.046 1h-.582v-.767zM85.58 47.197L88.459 43.426 85.692 43.426 85.692 42.921 89.144 42.921 89.144 43.426 86.265 47.187 89.144 47.187 89.144 47.692 85.58 47.692 85.58 47.197M90.917 47.692h.592v-4.77h-.592v4.77zm0-6.042h.592v-.786h-.592v.786zM97.466 46.57c0 .364 0 .74.038 1.122h-.573v-.85h-.018c-.198.429-.554.963-1.548.963-1.182 0-1.633-.786-1.633-1.834v-3.05h.591v2.9c0 .899.319 1.479 1.135 1.479 1.08 0 1.417-.945 1.417-1.74V42.92h.591v3.65M99.68 44.044c0-.365 0-.739-.037-1.123h.572v.852h.018c.198-.43.554-.964 1.548-.964 1.183 0 1.633.787 1.633 1.834v3.05h-.591v-2.9c0-.898-.319-1.478-1.134-1.478-1.08 0-1.418.944-1.418 1.74v2.637h-.59v-3.648M108.51 47c.356.179.787.3 1.247.3.563 0 1.06-.31 1.06-.852 0-1.13-2.299-.954-2.299-2.339 0-.943.769-1.3 1.558-1.3.253 0 .759.056 1.182.216l-.057.515c-.31-.141-.731-.225-1.06-.225-.61 0-1.032.187-1.032.794 0 .89 2.355.777 2.355 2.34 0 1.01-.948 1.356-1.67 1.356-.46 0-.92-.056-1.34-.224l.055-.58M114.917 47.692L114.222 47.692 112.599 42.921 113.247 42.921 114.57 47.048 114.588 47.048 115.978 42.921 116.596 42.921 114.917 47.692M118.153 47.692h.592v-4.77h-.592v4.77zm0-6.042h.592v-.786h-.592v.786zM120.527 47.197L123.408 43.426 120.64 43.426 120.64 42.921 124.092 42.921 124.092 43.426 121.213 47.187 124.092 47.187 124.092 47.692 120.527 47.692 120.527 47.197M125.865 43.988c0-.523 0-.72-.037-1.067h.591v.918h.019c.215-.534.619-1.03 1.229-1.03.14 0 .309.029.412.056v.618c-.122-.037-.28-.057-.43-.057-.94 0-1.192 1.049-1.192 1.909v2.357h-.592v-3.704M132.414 45.289h-.168c-1.023 0-2.244.103-2.244 1.15 0 .628.45.86.996.86 1.388 0 1.416-1.206 1.416-1.72v-.29zm.057 1.637h-.02c-.262.57-.928.879-1.52.879-1.36 0-1.575-.917-1.575-1.347 0-1.6 1.707-1.674 2.945-1.674h.113v-.243c0-.814-.291-1.226-1.089-1.226-.497 0-.966.111-1.406.393v-.571c.365-.178.984-.328 1.406-.328 1.183 0 1.68.534 1.68 1.778v2.106c0 .382 0 .673.047 1h-.581v-.767zM37.327 72.668c.385.243.835.383 1.445.383.807 0 1.473-.412 1.473-1.338 0-1.281-3.002-1.44-3.002-3.152 0-1.048.92-1.703 2.073-1.703.319 0 .835.048 1.285.215l-.102.59c-.291-.159-.751-.244-1.193-.244-.675 0-1.415.281-1.415 1.124 0 1.309 3.002 1.319 3.002 3.226 0 1.32-1.135 1.843-2.15 1.843-.637 0-1.134-.131-1.481-.28l.065-.664M47.778 73.501L47.066 73.501 45.762 69.374 45.743 69.374 44.439 73.501 43.726 73.501 42.187 68.729 42.835 68.729 44.091 72.855 44.11 72.855 45.443 68.729 46.155 68.729 47.422 72.855 47.441 72.855 48.764 68.729 49.355 68.729 47.778 73.501M50.894 73.5h.592v-4.771h-.592v4.77zm0-6.043h.592v-.786h-.592v.786zM53.342 72.808c.357.178.788.3 1.248.3.563 0 1.06-.309 1.06-.852 0-1.131-2.299-.954-2.299-2.338 0-.945.77-1.3 1.558-1.3.254 0 .76.054 1.182.214l-.057.515c-.309-.141-.731-.225-1.059-.225-.61 0-1.033.187-1.033.796 0 .888 2.356.777 2.356 2.338 0 1.01-.948 1.356-1.67 1.356-.46 0-.92-.056-1.342-.223l.056-.581M57.723 72.808c.358.178.79.3 1.248.3.564 0 1.06-.309 1.06-.852 0-1.131-2.298-.954-2.298-2.338 0-.945.77-1.3 1.557-1.3.254 0 .76.054 1.183.214l-.056.515c-.31-.141-.732-.225-1.06-.225-.61 0-1.033.187-1.033.796 0 .888 2.355.777 2.355 2.338 0 1.01-.947 1.356-1.67 1.356-.46 0-.92-.056-1.34-.223l.054-.581M70.37 67.7c-.412-.214-1.003-.28-1.464-.28-1.698 0-2.654 1.198-2.654 2.816 0 1.645.929 2.815 2.654 2.815.432 0 1.09-.056 1.465-.28l.037.56c-.356.216-1.088.28-1.502.28-2.064 0-3.302-1.355-3.302-3.375 0-1.984 1.277-3.378 3.302-3.378.386 0 1.164.065 1.502.244l-.037.598M74.668 73.108c1.031 0 1.585-.889 1.585-1.993s-.554-1.993-1.585-1.993c-1.032 0-1.585.89-1.585 1.993 0 1.104.553 1.993 1.585 1.993zm0-4.49c1.548 0 2.233 1.196 2.233 2.497 0 1.3-.685 2.497-2.233 2.497s-2.233-1.197-2.233-2.497c0-1.3.685-2.497 2.233-2.497zM78.749 69.852c0-.365 0-.738-.038-1.123h.573v.852h.019c.196-.431.553-.963 1.548-.963 1.181 0 1.631.785 1.631 1.832v3.051h-.59V70.6c0-.898-.319-1.478-1.135-1.478-1.079 0-1.417.945-1.417 1.74V73.5h-.591v-3.65M85.1 69.235h-.966v-.506h.967v-.346c0-1.001.037-2.01 1.266-2.01.188 0 .442.027.554.093l-.037.515c-.123-.066-.302-.104-.47-.104-.807 0-.722.87-.722 1.44v.412h1.078v.506h-1.078V73.5h-.591v-4.266M91.471 70.778c0-.833-.337-1.656-1.219-1.656-.874 0-1.408.87-1.408 1.656h2.627zm.291 2.572c-.413.17-.947.262-1.389.262-1.585 0-2.177-1.066-2.177-2.497 0-1.459.808-2.497 2.017-2.497 1.352 0 1.906 1.084 1.906 2.366v.3h-3.275c0 1.01.544 1.824 1.576 1.824.432 0 1.06-.178 1.342-.356v.598zM95.758 73.108c1.052 0 1.417-1.123 1.417-1.993 0-.87-.365-1.993-1.417-1.993-1.125 0-1.416 1.066-1.416 1.993 0 .926.291 1.993 1.416 1.993zm2.008.393h-.59v-.758h-.018c-.32.607-.808.869-1.493.869-1.313 0-1.97-1.085-1.97-2.497 0-1.45.563-2.497 1.97-2.497.939 0 1.408.682 1.493.916h.017v-3.05h.591v7.017zM102.842 70.778c0-.833-.338-1.656-1.22-1.656-.872 0-1.407.87-1.407 1.656h2.627zm.29 2.572c-.412.17-.947.262-1.388.262-1.586 0-2.176-1.066-2.176-2.497 0-1.459.807-2.497 2.017-2.497 1.352 0 1.904 1.084 1.904 2.366v.3h-3.274c0 1.01.545 1.824 1.576 1.824.432 0 1.06-.178 1.342-.356v.598zM105.347 69.796c0-.524 0-.72-.037-1.067h.591v.917h.018c.216-.532.62-1.028 1.23-1.028.14 0 .309.027.413.054v.619c-.123-.038-.282-.056-.432-.056-.939 0-1.193 1.047-1.193 1.907v2.359h-.59v-3.705M111.896 71.096h-.17c-1.022 0-2.241.104-2.241 1.15 0 .628.45.862.994.862 1.389 0 1.417-1.208 1.417-1.721v-.291zm.057 1.637h-.02c-.263.571-.928.879-1.52.879-1.36 0-1.576-.916-1.576-1.347 0-1.6 1.708-1.674 2.946-1.674h.113v-.243c0-.814-.29-1.226-1.089-1.226-.497 0-.966.113-1.406.393v-.57c.365-.178.984-.327 1.406-.327 1.182 0 1.68.532 1.68 1.776V72.5c0 .383 0 .673.047 1.001h-.581v-.768zM116.69 69.235h-1.089v3.087c0 .43.16.786.64.786.224 0 .374-.047.543-.113l.038.486c-.14.056-.432.13-.723.13-1.05 0-1.088-.718-1.088-1.589v-2.787h-.939v-.506h.939v-1.15l.59-.206v1.356h1.09v.506M118.482 73.5h.591v-4.771h-.591v4.77zm0-6.043h.591v-.786h-.591v.786zM123.163 73.108c1.033 0 1.586-.889 1.586-1.993s-.553-1.993-1.586-1.993c-1.031 0-1.585.89-1.585 1.993 0 1.104.554 1.993 1.585 1.993zm0-4.49c1.55 0 2.235 1.196 2.235 2.497 0 1.3-.686 2.497-2.235 2.497-1.546 0-2.232-1.197-2.232-2.497 0-1.3.686-2.497 2.232-2.497zM127.245 69.852c0-.365 0-.738-.037-1.123h.571v.852h.02c.197-.431.553-.963 1.547-.963 1.183 0 1.633.785 1.633 1.832v3.051h-.591V70.6c0-.898-.32-1.478-1.136-1.478-1.079 0-1.416.945-1.416 1.74V73.5h-.59v-3.65" transform="translate(-20 -770) translate(20 770)"/>
                <path fill="red" d="M26.589 2.167S21.626 0 13.319 0h-.002C5.008 0 .046 2.167.046 2.167s-.445 9.596 1.439 15.02c3.327 9.54 11.83 12.22 11.83 12.22h.006s8.502-2.68 11.83-12.22c1.884-5.424 1.438-15.02 1.438-15.02" transform="translate(-20 -770) translate(20 770)"/>
                <path fill="#FFFFFE" d="M22.138 10.439L22.138 15.725 15.951 15.725 15.951 21.893 10.65 21.893 10.65 15.725 4.464 15.725 4.464 10.439 10.65 10.439 10.65 4.273 15.95 4.273 15.951 10.439 22.138 10.439" transform="translate(-20 -770) translate(20 770)"/>
                <path fill="#000" fill-rule="nonzero" d="M39.546 99.286c.792 0 2.214-.234 2.214-1.818 0-.774-.585-1.35-1.44-1.43v-.019c.747-.135 1.251-.657 1.251-1.404 0-1.377-1.215-1.61-2.025-1.61H37.35v6.281h2.196zm-.423-3.744h-.513v-1.548h.486c.576 0 1.215.054 1.215.783 0 .648-.657.765-1.188.765zm.081 2.754h-.594v-1.818h.594c.63 0 1.296.126 1.296.945 0 .73-.71.873-1.296.873zm5.462 1.098c.63 0 1.152-.288 1.521-.738h.018v.63h1.143v-4.635h-1.206v2.268c0 .594-.189 1.54-1.062 1.54-.728 0-.78-.678-.783-1.23V94.65h-1.206v2.925c0 1.044.477 1.818 1.575 1.818zm5.48-.108v-2.268c0-.594.19-1.539 1.062-1.539.774 0 .783.765.783 1.332v2.475h1.206v-2.925c0-1.044-.477-1.818-1.575-1.818-.63 0-1.143.207-1.52.738h-.019v-.63H48.94v4.635h1.206zm6.29.108c.567 0 1.062-.18 1.422-.63h.018v.522h1.17v-6.75H57.84v2.655h-.018c-.36-.44-.783-.648-1.386-.648-1.422 0-1.944 1.134-1.944 2.412 0 1.27.522 2.44 1.944 2.44zm.333-.936c-.792 0-1.017-.864-1.017-1.503 0-.62.216-1.476 1-1.476.773 0 1.08.828 1.08 1.476 0 .657-.262 1.503-1.063 1.503zm5.993.936c.648 0 1.152-.126 1.593-.369v-.98c-.45.251-.954.467-1.539.467-.747 0-1.269-.423-1.323-1.17h3.204c0-1.62-.486-2.799-2.205-2.799-1.44 0-2.15 1.107-2.15 2.448 0 1.521.89 2.403 2.42 2.403zm.783-2.88h-2.052c.054-.62.396-1.089 1.071-1.089.675 0 .945.504.981 1.09zm3.563 2.88c.981 0 1.944-.432 1.944-1.512 0-1.674-2.097-1.206-2.097-1.944 0-.396.387-.513.711-.513.441 0 .711.072 1.08.198l.081-.909c-.378-.08-.747-.17-1.314-.17-.945 0-1.818.44-1.818 1.44 0 1.673 2.097 1.052 2.097 1.961 0 .45-.486.567-.792.567-.414 0-.81-.117-1.188-.306l-.072.99c.441.117.91.198 1.368.198zm4.553 0c.55 0 1.152-.288 1.431-.8h.018c.01.143.01.45.054.692h1.062c-.027-.36-.045-.684-.054-1.035-.009-.342-.018-.693-.018-1.16v-.595c0-1.368-.585-1.953-1.998-1.953-.513 0-1.143.135-1.61.351l.035 1.035c.405-.306.918-.504 1.431-.504.711 0 1.044.252 1.044 1h-.666c-.504 0-1.098.044-1.557.27-.459.224-.792.63-.792 1.322 0 .882.801 1.377 1.62 1.377zm.297-.882c-.432 0-.765-.17-.765-.567 0-.71.801-.8 1.341-.8h.522c0 .36-.054.692-.252.953-.189.252-.477.414-.846.414zm4.922.774v-2.25c0-.603.1-1.557.9-1.557.693 0 .693.612.693 1.044v2.763h1.206v-2.25c0-.603.1-1.557.9-1.557.693 0 .693.612.693 1.044v2.763h1.206v-2.925c0-1.035-.324-1.818-1.467-1.818-.567 0-1.17.261-1.449.82-.26-.577-.72-.82-1.368-.82-.45 0-.999.19-1.377.756H76.8v-.648h-1.125v4.635h1.206zm9.026.108c.36 0 .64-.036.891-.108l-.036-.954c-.126.081-.333.126-.549.126-.459 0-.567-.369-.567-.765v-2.16h1.071v-.882h-1.07v-1.314l-1.207.387v.927h-.89v.882h.89v2.358c0 .918.522 1.503 1.467 1.503zm6.487-.108v-3.753h1.053v-.882h-1.053v-.576c0-.36.126-.71.531-.71.261 0 .414.098.522.161l.1-.999c-.235-.054-.577-.099-.883-.099-.954 0-1.476.648-1.476 1.575v.648h-.89v.882h.89v3.753h1.206zm5.786-5.48V92.76h-1.044v1.044h1.044zm-1.854 0V92.76h-1.044v1.044h1.044zm-.153 5.588c.63 0 1.152-.288 1.521-.738h.018v.63h1.143v-4.635h-1.206v2.268c0 .594-.189 1.54-1.062 1.54-.728 0-.78-.678-.783-1.23V94.65h-1.206v2.925c0 1.044.477 1.818 1.575 1.818zm5.507-.108v-1.905c.009-.684.093-1.686.981-1.686.216 0 .432.036.54.1v-1.216c-.126-.036-.252-.036-.369-.036-.72 0-1.215.73-1.269 1.161h-.018v-1.053h-1.07v4.635h1.205zm6.73 0v-6.282h-1.26v6.282h1.26zm2.798 0v-2.268c0-.594.19-1.539 1.062-1.539.774 0 .783.765.783 1.332v2.475h1.206v-2.925c0-1.044-.477-1.818-1.575-1.818-.63 0-1.143.207-1.52.738h-.019v-.63h-1.143v4.635h1.206zm6.29 0v-3.753h1.053v-.882h-1.053v-.576c0-.36.126-.71.531-.71.261 0 .414.098.522.161l.1-.999c-.235-.054-.577-.099-.883-.099-.954 0-1.476.648-1.476 1.575v.648h-.89v.882h.89v3.753h1.206zm4.328.108c1.54 0 2.43-1.062 2.43-2.394 0-1.53-1.053-2.457-2.43-2.457-1.368 0-2.42.927-2.42 2.457 0 1.332.89 2.394 2.42 2.394zm0-.936c-.918 0-1.16-.837-1.16-1.602 0-.693.377-1.377 1.16-1.377.792 0 1.17.666 1.17 1.377 0 .774-.243 1.602-1.17 1.602zm4.958.828v-1.905c.009-.684.093-1.686.981-1.686.216 0 .432.036.54.1v-1.216c-.126-.036-.252-.036-.369-.036-.72 0-1.215.73-1.269 1.161h-.018v-1.053h-1.07v4.635h1.205zm3.806 0v-2.25c0-.603.1-1.557.9-1.557.693 0 .693.612.693 1.044v2.763h1.206v-2.25c0-.603.1-1.557.9-1.557.693 0 .693.612.693 1.044v2.763h1.206v-2.925c0-1.035-.324-1.818-1.467-1.818-.567 0-1.17.261-1.449.82-.26-.577-.72-.82-1.368-.82-.45 0-.999.19-1.377.756h-.018v-.648h-1.125v4.635h1.206zm8.486.108c.55 0 1.152-.288 1.431-.8h.018c.01.143.01.45.054.692h1.062c-.027-.36-.045-.684-.054-1.035-.009-.342-.018-.693-.018-1.16v-.595c0-1.368-.585-1.953-1.998-1.953-.513 0-1.143.135-1.61.351l.035 1.035c.405-.306.918-.504 1.431-.504.711 0 1.044.252 1.044 1h-.666c-.504 0-1.098.044-1.557.27-.459.224-.792.63-.792 1.322 0 .882.801 1.377 1.62 1.377zm.297-.882c-.432 0-.765-.17-.765-.567 0-.71.801-.8 1.341-.8h.522c0 .36-.054.692-.252.953-.189.252-.477.414-.846.414zm5.597.882c.36 0 .64-.036.891-.108l-.036-.954c-.126.081-.333.126-.549.126-.459 0-.567-.369-.567-.765v-2.16h1.071v-.882h-1.07v-1.314l-1.207.387v.927h-.89v.882h.89v2.358c0 .918.522 1.503 1.467 1.503zm3.221-5.589v-1.152h-1.206v1.152h1.206zm0 5.481v-4.635h-1.206v4.635h1.206zm2.852 0v-2.25h.018l1.548 2.25h1.53l-1.944-2.565 1.728-2.07H152.5l-1.44 1.854h-.018v-3.969h-1.206v6.75h1.206zm8.548.108c.63 0 1.152-.288 1.521-.738h.018v.63h1.143v-4.635h-1.206v2.268c0 .594-.189 1.54-1.062 1.54-.728 0-.78-.678-.783-1.23V94.65h-1.206v2.925c0 1.044.477 1.818 1.575 1.818zm5.48-.108v-2.268c0-.594.19-1.539 1.062-1.539.774 0 .783.765.783 1.332v2.475h1.206v-2.925c0-1.044-.477-1.818-1.575-1.818-.63 0-1.143.207-1.52.738h-.019v-.63h-1.143v4.635h1.206zm6.29.108c.567 0 1.062-.18 1.422-.63h.018v.522h1.17v-6.75h-1.206v2.655h-.018c-.36-.44-.783-.648-1.386-.648-1.422 0-1.944 1.134-1.944 2.412 0 1.27.522 2.44 1.944 2.44zm.333-.936c-.792 0-1.017-.864-1.017-1.503 0-.62.216-1.476 1-1.476.773 0 1.08.828 1.08 1.476 0 .657-.262 1.503-1.063 1.503zm9.232.828v-5.292h1.8v-.99h-4.86v.99h1.8v5.292h1.26zm3.968.108c.648 0 1.152-.126 1.593-.369v-.98c-.45.251-.954.467-1.539.467-.747 0-1.269-.423-1.323-1.17h3.204c0-1.62-.486-2.799-2.205-2.799-1.44 0-2.15 1.107-2.15 2.448 0 1.521.89 2.403 2.42 2.403zm.783-2.88h-2.052c.054-.62.396-1.089 1.071-1.089.675 0 .945.504.981 1.09zm3.68 2.772v-6.75h-1.206v6.75h1.206zm3.743.108c.648 0 1.152-.126 1.593-.369v-.98c-.45.251-.954.467-1.539.467-.747 0-1.269-.423-1.323-1.17h3.204c0-1.62-.486-2.799-2.205-2.799-1.44 0-2.15 1.107-2.15 2.448 0 1.521.89 2.403 2.42 2.403zm.783-2.88h-2.052c.054-.62.396-1.089 1.071-1.089.675 0 .945.504.981 1.09zm3.68 2.772v-2.25h.018l1.548 2.25h1.53l-1.944-2.565 1.728-2.07h-1.422l-1.44 1.854h-.018v-3.969h-1.206v6.75h1.206zm6.245.108c1.54 0 2.43-1.062 2.43-2.394 0-1.53-1.053-2.457-2.43-2.457-1.368 0-2.42.927-2.42 2.457 0 1.332.89 2.394 2.42 2.394zm0-.936c-.918 0-1.16-.837-1.16-1.602 0-.693.377-1.377 1.16-1.377.792 0 1.17.666 1.17 1.377 0 .774-.243 1.602-1.17 1.602zm4.913.828v-2.25c0-.603.1-1.557.9-1.557.693 0 .693.612.693 1.044v2.763h1.206v-2.25c0-.603.1-1.557.9-1.557.693 0 .693.612.693 1.044v2.763h1.206v-2.925c0-1.035-.324-1.818-1.467-1.818-.567 0-1.17.261-1.449.82-.26-.577-.72-.82-1.368-.82-.45 0-.999.19-1.377.756h-.018v-.648h-1.125v4.635h1.206zm8.351 0v-2.25c0-.603.1-1.557.9-1.557.693 0 .693.612.693 1.044v2.763h1.206v-2.25c0-.603.1-1.557.9-1.557.693 0 .693.612.693 1.044v2.763h1.206v-2.925c0-1.035-.324-1.818-1.467-1.818-.567 0-1.17.261-1.449.82-.26-.577-.72-.82-1.368-.82-.45 0-.999.19-1.377.756h-.018v-.648h-1.125v4.635h1.206zm8.738.108c.63 0 1.152-.288 1.521-.738h.018v.63h1.143v-4.635h-1.206v2.268c0 .594-.189 1.54-1.062 1.54-.728 0-.78-.678-.783-1.23V94.65h-1.206v2.925c0 1.044.477 1.818 1.575 1.818zm5.48-.108v-2.268c0-.594.19-1.539 1.062-1.539.774 0 .783.765.783 1.332v2.475h1.206v-2.925c0-1.044-.477-1.818-1.575-1.818-.63 0-1.143.207-1.52.738h-.019v-.63h-1.143v4.635h1.206zm5.876-5.48v-1.153h-1.206v1.152h1.206zm0 5.48v-4.635h-1.206v4.635h1.206zm2.852 0v-2.25h.018l1.548 2.25h1.53l-1.944-2.565 1.728-2.07h-1.422l-1.44 1.854h-.018v-3.969h-1.206v6.75h1.206zm5.444.108c.55 0 1.152-.288 1.431-.8h.018c.01.143.01.45.054.692h1.062c-.027-.36-.045-.684-.054-1.035-.009-.342-.018-.693-.018-1.16v-.595c0-1.368-.585-1.953-1.998-1.953-.513 0-1.143.135-1.61.351l.035 1.035c.405-.306.918-.504 1.431-.504.711 0 1.044.252 1.044 1h-.666c-.504 0-1.098.044-1.557.27-.459.224-.792.63-.792 1.322 0 .882.801 1.377 1.62 1.377zm.297-.882c-.432 0-.765-.17-.765-.567 0-.71.801-.8 1.341-.8h.522c0 .36-.054.692-.252.953-.189.252-.477.414-.846.414zm5.597.882c.36 0 .64-.036.891-.108l-.036-.954c-.126.081-.333.126-.549.126-.459 0-.567-.369-.567-.765v-2.16h1.071v-.882h-1.07v-1.314l-1.207.387v.927h-.89v.882h.89v2.358c0 .918.522 1.503 1.467 1.503zm3.221-5.589v-1.152h-1.206v1.152h1.206zm0 5.481v-4.635h-1.206v4.635h1.206zm3.743.108c1.54 0 2.43-1.062 2.43-2.394 0-1.53-1.053-2.457-2.43-2.457-1.368 0-2.42.927-2.42 2.457 0 1.332.89 2.394 2.42 2.394zm0-.936c-.918 0-1.16-.837-1.16-1.602 0-.693.377-1.377 1.16-1.377.792 0 1.17.666 1.17 1.377 0 .774-.243 1.602-1.17 1.602zm4.931.828v-2.268c0-.594.19-1.539 1.062-1.539.774 0 .783.765.783 1.332v2.475h1.206v-2.925c0-1.044-.477-1.818-1.575-1.818-.63 0-1.143.207-1.52.738h-.019v-.63h-1.143v4.635h1.206zm9.8 0c.791 0 2.213-.234 2.213-1.818 0-.774-.585-1.35-1.44-1.43v-.019c.747-.135 1.251-.657 1.251-1.404 0-1.377-1.215-1.61-2.025-1.61h-2.196v6.281h2.196zm-.424-3.744h-.513v-1.548h.486c.576 0 1.215.054 1.215.783 0 .648-.657.765-1.188.765zm.081 2.754h-.594v-1.818h.594c.63 0 1.296.126 1.296.945 0 .73-.71.873-1.296.873zm5.147.99v-6.282h-1.26v6.282h1.26zm4.103 0v-5.292h1.8v-.99h-4.86v.99h1.8v5.292h1.26zM40.122 112.294c1.99 0 3.078-1.368 3.078-3.267 0-1.899-1.107-3.23-3.078-3.23-1.998 0-3.078 1.304-3.078 3.23s1.062 3.267 3.078 3.267zm0-.99c-1.287 0-1.764-1.143-1.764-2.277 0-1.107.513-2.24 1.764-2.24s1.764 1.133 1.764 2.24c0 1.134-.477 2.277-1.764 2.277zm6.12.882v-3.753h1.052v-.882h-1.053v-.576c0-.36.126-.71.531-.71.261 0 .414.098.522.161l.1-.999c-.235-.054-.577-.099-.883-.099-.954 0-1.476.648-1.476 1.575v.648h-.89v.882h.89v3.753h1.206zm3.688 0v-3.753h1.053v-.882H49.93v-.576c0-.36.126-.71.531-.71.261 0 .414.098.522.161l.1-.999c-.235-.054-.577-.099-.883-.099-.954 0-1.476.648-1.476 1.575v.648h-.89v.882h.89v3.753h1.206zm3.087-5.48v-1.153h-1.206v1.152h1.206zm0 5.48v-4.635h-1.206v4.635h1.206zm3.608.108c.495 0 .855-.045 1.206-.153l-.054-.999c-.207.09-.585.216-.927.216-.846 0-1.25-.657-1.25-1.512 0-.873.476-1.467 1.223-1.467.37 0 .603.072.82.171l.107-.954c-.333-.099-.684-.153-1.17-.153-1.449 0-2.24 1.062-2.24 2.403 0 1.413.764 2.448 2.285 2.448zm4.481 0c.648 0 1.152-.126 1.593-.369v-.98c-.45.251-.954.467-1.539.467-.747 0-1.269-.423-1.323-1.17h3.204c0-1.62-.486-2.799-2.205-2.799-1.44 0-2.15 1.107-2.15 2.448 0 1.521.89 2.403 2.42 2.403zm.783-2.88h-2.052c.054-.62.396-1.089 1.071-1.089.675 0 .945.504.981 1.09zm6.946 2.772v-3.753h1.053v-.882h-1.053v-.576c0-.36.126-.71.531-.71.261 0 .414.098.522.161l.1-.999c-.235-.054-.577-.099-.883-.099-.954 0-1.476.648-1.476 1.575v.648h-.89v.882h.89v3.753h1.206zm4.166-5.265l1.233-1.314h-1.233l-.747 1.314h.747zm.162 5.373c.648 0 1.152-.126 1.593-.369v-.98c-.45.251-.954.467-1.539.467-.747 0-1.269-.423-1.323-1.17h3.204c0-1.62-.486-2.799-2.205-2.799-1.44 0-2.15 1.107-2.15 2.448 0 1.521.89 2.403 2.42 2.403zm.783-2.88h-2.052c.054-.62.396-1.089 1.071-1.089.675 0 .945.504.981 1.09zm4.094 2.88c.567 0 1.062-.18 1.422-.63h.018v.522h1.17v-6.75h-1.206v2.655h-.018c-.36-.44-.783-.648-1.386-.648-1.422 0-1.944 1.134-1.944 2.412 0 1.27.522 2.44 1.944 2.44zm.333-.936c-.792 0-1.017-.864-1.017-1.503 0-.62.216-1.476 1-1.476.773 0 1.08.828 1.08 1.476 0 .657-.262 1.503-1.063 1.503zm5.831-4.437l1.233-1.314h-1.233l-.747 1.314h.747zm.162 5.373c.648 0 1.152-.126 1.593-.369v-.98c-.45.251-.954.467-1.539.467-.747 0-1.269-.423-1.323-1.17h3.204c0-1.62-.486-2.799-2.205-2.799-1.44 0-2.15 1.107-2.15 2.448 0 1.521.89 2.403 2.42 2.403zm.783-2.88h-2.052c.054-.62.396-1.089 1.071-1.089.675 0 .945.504.981 1.09zm3.68 2.772v-1.905c.009-.684.093-1.686.981-1.686.216 0 .432.036.54.1v-1.216c-.126-.036-.252-.036-.369-.036-.72 0-1.215.73-1.269 1.161h-.018v-1.053h-1.07v4.635h1.205zm3.941.108c.55 0 1.152-.288 1.431-.8h.018c.01.143.01.45.054.692h1.062c-.027-.36-.045-.684-.054-1.035-.009-.342-.018-.693-.018-1.16v-.595c0-1.368-.585-1.953-1.998-1.953-.513 0-1.143.135-1.61.351l.035 1.035c.405-.306.918-.504 1.431-.504.711 0 1.044.252 1.044 1H93.5c-.504 0-1.098.044-1.557.27-.459.224-.792.63-.792 1.322 0 .882.801 1.377 1.62 1.377zm.297-.882c-.432 0-.765-.17-.765-.567 0-.71.801-.8 1.341-.8h.522c0 .36-.054.692-.252.953-.189.252-.477.414-.846.414zm4.967.774v-6.75h-1.206v6.75h1.206zm6.118.108c.567 0 1.062-.18 1.422-.63h.018v.522h1.17v-6.75h-1.206v2.655h-.018c-.36-.44-.783-.648-1.386-.648-1.422 0-1.944 1.134-1.944 2.412 0 1.27.522 2.44 1.944 2.44zm.333-.936c-.792 0-1.017-.864-1.017-1.503 0-.62.216-1.476 1-1.476.773 0 1.08.828 1.08 1.476 0 .657-.262 1.503-1.063 1.503zm5.993.936c.648 0 1.152-.126 1.593-.369v-.98c-.45.251-.954.467-1.539.467-.747 0-1.269-.423-1.323-1.17h3.204c0-1.62-.486-2.799-2.205-2.799-1.44 0-2.15 1.107-2.15 2.448 0 1.521.89 2.403 2.42 2.403zm.783-2.88h-2.052c.054-.62.396-1.089 1.071-1.089.675 0 .945.504.981 1.09zm6.532 2.772v-6.75h-1.206v6.75h1.206zm2.366-4.032l.828-2.25h-1.314l-.576 2.25h1.062zm3.338-1.449v-1.152h-1.206v1.152h1.206zm0 5.481v-4.635h-1.206v4.635h1.206zm2.825 0v-2.268c0-.594.19-1.539 1.062-1.539.774 0 .783.765.783 1.332v2.475h1.206v-2.925c0-1.044-.477-1.818-1.575-1.818-.63 0-1.143.207-1.52.738h-.019v-.63h-1.143v4.635h1.206zm6.29 0v-3.753h1.053v-.882h-1.053v-.576c0-.36.126-.71.531-.71.261 0 .414.098.522.161l.1-.999c-.235-.054-.577-.099-.883-.099-.954 0-1.476.648-1.476 1.575v.648h-.89v.882h.89v3.753h1.206zm4.328.108c1.54 0 2.43-1.062 2.43-2.394 0-1.53-1.053-2.457-2.43-2.457-1.368 0-2.42.927-2.42 2.457 0 1.332.89 2.394 2.42 2.394zm0-.936c-.918 0-1.16-.837-1.16-1.602 0-.693.377-1.377 1.16-1.377.792 0 1.17.666 1.17 1.377 0 .774-.243 1.602-1.17 1.602zm4.958.828v-1.905c.009-.684.093-1.686.981-1.686.216 0 .432.036.54.1v-1.216c-.126-.036-.252-.036-.369-.036-.72 0-1.215.73-1.269 1.161h-.018v-1.053h-1.07v4.635h1.205zm3.806 0v-2.25c0-.603.1-1.557.9-1.557.693 0 .693.612.693 1.044v2.763h1.206v-2.25c0-.603.1-1.557.9-1.557.693 0 .693.612.693 1.044v2.763h1.206v-2.925c0-1.035-.324-1.818-1.467-1.818-.567 0-1.17.261-1.449.82-.26-.577-.72-.82-1.368-.82-.45 0-.999.19-1.377.756h-.018v-.648h-1.125v4.635h1.206zm8.486.108c.55 0 1.152-.288 1.431-.8h.018c.01.143.01.45.054.692h1.062c-.027-.36-.045-.684-.054-1.035-.009-.342-.018-.693-.018-1.16v-.595c0-1.368-.585-1.953-1.998-1.953-.513 0-1.143.135-1.61.351l.035 1.035c.405-.306.918-.504 1.431-.504.711 0 1.044.252 1.044 1h-.666c-.504 0-1.098.044-1.557.27-.459.224-.792.63-.792 1.322 0 .882.801 1.377 1.62 1.377zm.297-.882c-.432 0-.765-.17-.765-.567 0-.71.801-.8 1.341-.8h.522c0 .36-.054.692-.252.953-.189.252-.477.414-.846.414zm5.597.882c.36 0 .64-.036.891-.108l-.036-.954c-.126.081-.333.126-.549.126-.459 0-.567-.369-.567-.765v-2.16h1.071v-.882h-1.07v-1.314l-1.207.387v.927h-.89v.882h.89v2.358c0 .918.522 1.503 1.467 1.503zm3.221-5.589v-1.152H162.1v1.152h1.206zm0 5.481v-4.635H162.1v4.635h1.206zm5.876 1.89v-6.525h-1.152v.657h-.018c-.288-.477-.729-.765-1.413-.765-1.449 0-1.97 1.134-1.97 2.412 0 1.27.521 2.44 1.97 2.44.513 0 .936-.127 1.36-.64h.017v2.421h1.206zm-2.277-2.718c-.792 0-1.017-.864-1.017-1.503 0-.62.216-1.476 1-1.476.773 0 1.08.828 1.08 1.476 0 .657-.262 1.503-1.063 1.503zm5.444.936c.63 0 1.152-.288 1.521-.738h.018v.63h1.143v-4.635h-1.206v2.268c0 .594-.189 1.54-1.062 1.54-.728 0-.78-.678-.783-1.23v-2.578h-1.206v2.925c0 1.044.477 1.818 1.575 1.818zm6.398 0c.648 0 1.152-.126 1.593-.369v-.98c-.45.251-.954.467-1.539.467-.747 0-1.269-.423-1.323-1.17h3.204c0-1.62-.486-2.799-2.205-2.799-1.44 0-2.15 1.107-2.15 2.448 0 1.521.89 2.403 2.42 2.403zm.783-2.88h-2.052c.054-.62.396-1.089 1.071-1.089.675 0 .945.504.981 1.09zm7.423 2.88c.648 0 1.152-.126 1.593-.369v-.98c-.45.251-.954.467-1.539.467-.747 0-1.269-.423-1.323-1.17h3.204c0-1.62-.486-2.799-2.205-2.799-1.44 0-2.15 1.107-2.15 2.448 0 1.521.89 2.403 2.42 2.403zm.783-2.88h-2.052c.054-.62.396-1.089 1.071-1.089.675 0 .945.504.981 1.09zm4.31 2.88c.36 0 .64-.036.891-.108l-.036-.954c-.126.081-.333.126-.549.126-.459 0-.567-.369-.567-.765v-2.16h1.071v-.882h-1.07v-1.314l-1.207.387v.927h-.89v.882h.89v2.358c0 .918.522 1.503 1.467 1.503zm6.487 0c.567 0 1.062-.18 1.422-.63h.018v.522h1.17v-6.75h-1.206v2.655h-.018c-.36-.44-.783-.648-1.386-.648-1.422 0-1.944 1.134-1.944 2.412 0 1.27.522 2.44 1.944 2.44zm.333-.936c-.792 0-1.017-.864-1.017-1.503 0-.62.216-1.476 1-1.476.773 0 1.08.828 1.08 1.476 0 .657-.262 1.503-1.063 1.503zm5.993.936c.648 0 1.152-.126 1.593-.369v-.98c-.45.251-.954.467-1.539.467-.747 0-1.269-.423-1.323-1.17h3.204c0-1.62-.486-2.799-2.205-2.799-1.44 0-2.15 1.107-2.15 2.448 0 1.521.89 2.403 2.42 2.403zm.783-2.88h-2.052c.054-.62.396-1.089 1.071-1.089.675 0 .945.504.981 1.09zm6.532 2.772v-6.75h-1.206v6.75h1.206zm2.942.108c.55 0 1.152-.288 1.431-.8h.018c.01.143.01.45.054.692h1.062c-.027-.36-.045-.684-.054-1.035-.009-.342-.018-.693-.018-1.16v-.595c0-1.368-.585-1.953-1.998-1.953-.513 0-1.143.135-1.61.351l.035 1.035c.405-.306.918-.504 1.431-.504.711 0 1.044.252 1.044 1h-.666c-.504 0-1.098.044-1.557.27-.459.224-.792.63-.792 1.322 0 .882.801 1.377 1.62 1.377zm.297-.882c-.432 0-.765-.17-.765-.567 0-.71.801-.8 1.341-.8h.522c0 .36-.054.692-.252.953-.189.252-.477.414-.846.414zm8.45.882c.36 0 .638-.036.89-.108l-.036-.954c-.126.081-.333.126-.549.126-.459 0-.567-.369-.567-.765v-2.16h1.071v-.882h-1.07v-1.314l-1.207.387v.927h-.89v.882h.89v2.358c0 .918.522 1.503 1.467 1.503zm3.95-5.373l1.232-1.314h-1.233l-.747 1.314h.747zm.161 5.373c.648 0 1.152-.126 1.593-.369v-.98c-.45.251-.954.467-1.539.467-.747 0-1.269-.423-1.323-1.17h3.204c0-1.62-.486-2.799-2.205-2.799-1.44 0-2.15 1.107-2.15 2.448 0 1.521.89 2.403 2.42 2.403zm.783-2.88h-2.052c.054-.62.396-1.089 1.071-1.089.675 0 .945.504.981 1.09zm3.68 2.772v-6.75h-1.206v6.75h1.206zm3.581-5.265l1.233-1.314h-1.233l-.747 1.314h.747zm.162 5.373c.648 0 1.152-.126 1.593-.369v-.98c-.45.251-.954.467-1.539.467-.747 0-1.269-.423-1.323-1.17h3.204c0-1.62-.486-2.799-2.205-2.799-1.44 0-2.15 1.107-2.15 2.448 0 1.521.89 2.403 2.42 2.403zm.783-2.88h-2.052c.054-.62.396-1.089 1.071-1.089.675 0 .945.504.981 1.09zm4.436 2.88c.495 0 .855-.045 1.206-.153l-.054-.999c-.207.09-.585.216-.927.216-.846 0-1.25-.657-1.25-1.512 0-.873.476-1.467 1.223-1.467.37 0 .603.072.82.171l.107-.954c-.333-.099-.684-.153-1.17-.153-1.449 0-2.24 1.062-2.24 2.403 0 1.413.764 2.448 2.285 2.448zm4.481 0c1.54 0 2.43-1.062 2.43-2.394 0-1.53-1.053-2.457-2.43-2.457-1.368 0-2.42.927-2.42 2.457 0 1.332.89 2.394 2.42 2.394zm0-.936c-.918 0-1.16-.837-1.16-1.602 0-.693.377-1.377 1.16-1.377.792 0 1.17.666 1.17 1.377 0 .774-.243 1.602-1.17 1.602zm4.913.828v-2.25c0-.603.1-1.557.9-1.557.693 0 .693.612.693 1.044v2.763h1.206v-2.25c0-.603.1-1.557.9-1.557.693 0 .693.612.693 1.044v2.763h1.206v-2.925c0-1.035-.324-1.818-1.467-1.818-.567 0-1.17.261-1.449.82-.26-.577-.72-.82-1.368-.82-.45 0-.999.19-1.377.756h-.018v-.648h-1.125v4.635h1.206zm8.351 0v-2.25c0-.603.1-1.557.9-1.557.693 0 .693.612.693 1.044v2.763h1.206v-2.25c0-.603.1-1.557.9-1.557.693 0 .693.612.693 1.044v2.763h1.206v-2.925c0-1.035-.324-1.818-1.467-1.818-.567 0-1.17.261-1.449.82-.26-.577-.72-.82-1.368-.82-.45 0-.999.19-1.377.756h-.018v-.648h-1.125v4.635h1.206zm8.738.108c.63 0 1.152-.288 1.521-.738h.018v.63h1.143v-4.635h-1.206v2.268c0 .594-.189 1.54-1.062 1.54-.728 0-.78-.678-.783-1.23v-2.578h-1.206v2.925c0 1.044.477 1.818 1.575 1.818zm5.48-.108v-2.268c0-.594.19-1.539 1.062-1.539.774 0 .783.765.783 1.332v2.475h1.206v-2.925c0-1.044-.477-1.818-1.575-1.818-.63 0-1.143.207-1.52.738h-.019v-.63h-1.143v4.635h1.206zm5.876-5.48v-1.153h-1.206v1.152h1.206zm0 5.48v-4.635h-1.206v4.635h1.206zm3.608.108c.495 0 .855-.045 1.206-.153l-.054-.999c-.207.09-.585.216-.927.216-.846 0-1.25-.657-1.25-1.512 0-.873.476-1.467 1.223-1.467.37 0 .603.072.82.171l.107-.954c-.333-.099-.684-.153-1.17-.153-1.449 0-2.24 1.062-2.24 2.403 0 1.413.764 2.448 2.285 2.448zm3.68 0c.55 0 1.152-.288 1.431-.8h.018c.01.143.01.45.054.692h1.062c-.027-.36-.045-.684-.054-1.035-.009-.342-.018-.693-.018-1.16v-.595c0-1.368-.585-1.953-1.998-1.953-.513 0-1.143.135-1.61.351l.035 1.035c.405-.306.918-.504 1.431-.504.711 0 1.044.252 1.044 1h-.666c-.504 0-1.098.044-1.557.27-.459.224-.792.63-.792 1.322 0 .882.801 1.377 1.62 1.377zm.297-.882c-.432 0-.765-.17-.765-.567 0-.71.801-.8 1.341-.8h.522c0 .36-.054.692-.252.953-.189.252-.477.414-.846.414zm5.597.882c.36 0 .64-.036.891-.108l-.036-.954c-.126.081-.333.126-.549.126-.459 0-.567-.369-.567-.765v-2.16h1.071v-.882h-1.07v-1.314l-1.207.387v.927h-.89v.882h.89v2.358c0 .918.522 1.503 1.467 1.503zm3.221-5.589v-1.152h-1.206v1.152h1.206zm0 5.481v-4.635h-1.206v4.635h1.206zm3.743.108c1.54 0 2.43-1.062 2.43-2.394 0-1.53-1.053-2.457-2.43-2.457-1.368 0-2.42.927-2.42 2.457 0 1.332.89 2.394 2.42 2.394zm0-.936c-.918 0-1.16-.837-1.16-1.602 0-.693.377-1.377 1.16-1.377.792 0 1.17.666 1.17 1.377 0 .774-.243 1.602-1.17 1.602zm4.931.828v-2.268c0-.594.19-1.539 1.062-1.539.774 0 .783.765.783 1.332v2.475h1.206v-2.925c0-1.044-.477-1.818-1.575-1.818-.63 0-1.143.207-1.52.738h-.019v-.63h-1.143v4.635h1.206zm10.375.108c1.99 0 3.078-1.368 3.078-3.267 0-1.899-1.107-3.23-3.078-3.23-1.998 0-3.078 1.304-3.078 3.23s1.062 3.267 3.078 3.267zm0-.99c-1.287 0-1.764-1.143-1.764-2.277 0-1.107.513-2.24 1.764-2.24s1.764 1.133 1.764 2.24c0 1.134-.477 2.277-1.764 2.277zm5.84.882v-2.754h2.124v-.99h-2.124v-1.548h2.232v-.99h-3.492v6.282h1.26zm4.742 0v-6.282h-1.26v6.282h1.26zm4.103 0v-5.292h1.8v-.99h-4.86v.99h1.8v5.292h1.26zM39.87 125.194c1.611 0 2.565-.693 2.565-2.376v-4.014h-1.26v3.627c0 1.071-.342 1.773-1.305 1.773-.963 0-1.305-.702-1.305-1.773v-3.627h-1.26v4.014c0 1.683.954 2.376 2.565 2.376zm5.867-.108v-3.753h1.053v-.882h-1.053v-.576c0-.36.126-.71.531-.71.261 0 .414.098.522.161l.1-.999c-.235-.054-.577-.099-.883-.099-.954 0-1.476.648-1.476 1.575v.648h-.89v.882h.89v3.753h1.206zm3.69 0v-3.753h1.052v-.882h-1.053v-.576c0-.36.126-.71.531-.71.261 0 .414.098.522.161l.1-.999c-.235-.054-.577-.099-.883-.099-.954 0-1.476.648-1.476 1.575v.648h-.89v.882h.89v3.753h1.206zm3.086-5.48v-1.153h-1.206v1.152h1.206zm0 5.48v-4.635h-1.206v4.635h1.206zm3.608.108c.495 0 .855-.045 1.206-.153l-.054-.999c-.207.09-.585.216-.927.216-.846 0-1.25-.657-1.25-1.512 0-.873.476-1.467 1.223-1.467.37 0 .603.072.82.171l.107-.954c-.333-.099-.684-.153-1.17-.153-1.449 0-2.24 1.062-2.24 2.403 0 1.413.764 2.448 2.285 2.448zm3.59-5.589v-1.152h-1.206v1.152h1.206zm0 5.481v-4.635h-1.206v4.635h1.206zm3.743.108c1.54 0 2.43-1.062 2.43-2.394 0-1.53-1.053-2.457-2.43-2.457-1.368 0-2.42.927-2.42 2.457 0 1.332.89 2.394 2.42 2.394zm0-.936c-.918 0-1.16-.837-1.16-1.602 0-.693.377-1.377 1.16-1.377.792 0 1.17.666 1.17 1.377 0 .774-.243 1.602-1.17 1.602zm8.224.828v-3.753h1.053v-.882h-1.053v-.576c0-.36.126-.71.531-.71.261 0 .414.098.522.161l.1-.999c-.235-.054-.577-.099-.883-.099-.954 0-1.476.648-1.476 1.575v.648h-.89v.882h.89v3.753h1.206zm4.328.108c.648 0 1.152-.126 1.593-.369v-.98c-.45.251-.954.467-1.539.467-.747 0-1.269-.423-1.323-1.17h3.204c0-1.62-.486-2.799-2.205-2.799-1.44 0-2.15 1.107-2.15 2.448 0 1.521.89 2.403 2.42 2.403zm.783-2.88h-2.052c.054-.62.396-1.089 1.071-1.089.675 0 .945.504.981 1.09zm4.094 2.88c.567 0 1.062-.18 1.422-.63h.018v.522h1.17v-6.75h-1.206v2.655h-.018c-.36-.44-.783-.648-1.386-.648-1.422 0-1.944 1.134-1.944 2.412 0 1.27.522 2.44 1.944 2.44zm.333-.936c-.792 0-1.017-.864-1.017-1.503 0-.62.216-1.476 1-1.476.773 0 1.08.828 1.08 1.476 0 .657-.262 1.503-1.063 1.503zm5.993.936c.648 0 1.152-.126 1.593-.369v-.98c-.45.251-.954.467-1.539.467-.747 0-1.269-.423-1.323-1.17h3.204c0-1.62-.486-2.799-2.205-2.799-1.44 0-2.15 1.107-2.15 2.448 0 1.521.89 2.403 2.42 2.403zm.783-2.88H85.94c.054-.62.396-1.089 1.071-1.089.675 0 .945.504.981 1.09zm3.68 2.772v-1.905c.009-.684.093-1.686.981-1.686.216 0 .432.036.54.1v-1.216c-.126-.036-.252-.036-.369-.036-.72 0-1.215.73-1.269 1.161h-.018v-1.053h-1.07v4.635h1.205zm3.941.108c.55 0 1.152-.288 1.431-.8h.018c.01.143.01.45.054.692h1.062c-.027-.36-.045-.684-.054-1.035-.009-.342-.018-.693-.018-1.16v-.595c0-1.368-.585-1.953-1.998-1.953-.513 0-1.143.135-1.61.351l.035 1.035c.405-.306.918-.504 1.431-.504.711 0 1.044.252 1.044 1h-.666c-.504 0-1.098.044-1.557.27-.459.224-.792.63-.792 1.322 0 .882.801 1.377 1.62 1.377zm.297-.882c-.432 0-.765-.17-.765-.567 0-.71.801-.8 1.341-.8h.522c0 .36-.054.692-.252.953-.189.252-.477.414-.846.414zm4.967.774v-6.75h-1.206v6.75h1.206zm3.743.108c.648 0 1.152-.126 1.593-.369v-.98c-.45.251-.954.467-1.539.467-.747 0-1.269-.423-1.323-1.17h3.204c0-1.62-.486-2.799-2.205-2.799-1.44 0-2.15 1.107-2.15 2.448 0 1.521.89 2.403 2.42 2.403zm.783-2.88h-2.052c.054-.62.396-1.089 1.071-1.089.675 0 .945.504.981 1.09zm6.946 2.88c.567 0 1.062-.18 1.422-.63h.018v.522h1.17v-6.75h-1.206v2.655h-.018c-.36-.44-.783-.648-1.386-.648-1.422 0-1.944 1.134-1.944 2.412 0 1.27.522 2.44 1.944 2.44zm.333-.936c-.792 0-1.017-.864-1.017-1.503 0-.62.216-1.476 1-1.476.773 0 1.08.828 1.08 1.476 0 .657-.262 1.503-1.063 1.503zm5.993.936c.648 0 1.152-.126 1.593-.369v-.98c-.45.251-.954.467-1.539.467-.747 0-1.269-.423-1.323-1.17h3.204c0-1.62-.486-2.799-2.205-2.799-1.44 0-2.15 1.107-2.15 2.448 0 1.521.89 2.403 2.42 2.403zm.783-2.88h-2.052c.054-.62.396-1.089 1.071-1.089.675 0 .945.504.981 1.09zm3.68 2.772v-6.75h-1.206v6.75h1.206zm2.852 0v-6.75h-1.206v6.75h1.206zm2.366-4.032l.828-2.25h-1.314l-.576 2.25h1.062zm3.338-1.449v-1.152h-1.206v1.152h1.206zm0 5.481v-4.635h-1.206v4.635h1.206zm2.825 0v-2.268c0-.594.19-1.539 1.062-1.539.774 0 .783.765.783 1.332v2.475h1.206v-2.925c0-1.044-.477-1.818-1.575-1.818-.63 0-1.143.207-1.52.738h-.019v-.63h-1.143v4.635h1.206zm6.29 0v-3.753h1.053v-.882h-1.053v-.576c0-.36.126-.71.531-.71.261 0 .414.098.522.161l.1-.999c-.235-.054-.577-.099-.883-.099-.954 0-1.476.648-1.476 1.575v.648h-.89v.882h.89v3.753h1.206zm4.328.108c1.54 0 2.43-1.062 2.43-2.394 0-1.53-1.053-2.457-2.43-2.457-1.368 0-2.42.927-2.42 2.457 0 1.332.89 2.394 2.42 2.394zm0-.936c-.918 0-1.16-.837-1.16-1.602 0-.693.377-1.377 1.16-1.377.792 0 1.17.666 1.17 1.377 0 .774-.243 1.602-1.17 1.602zm4.958.828v-1.905c.009-.684.093-1.686.981-1.686.216 0 .432.036.54.1v-1.216c-.126-.036-.252-.036-.369-.036-.72 0-1.215.73-1.269 1.161h-.018v-1.053h-1.07v4.635h1.205zm3.806 0v-2.25c0-.603.1-1.557.9-1.557.693 0 .693.612.693 1.044v2.763h1.206v-2.25c0-.603.1-1.557.9-1.557.693 0 .693.612.693 1.044v2.763h1.206v-2.925c0-1.035-.324-1.818-1.467-1.818-.567 0-1.17.261-1.449.82-.26-.577-.72-.82-1.368-.82-.45 0-.999.19-1.377.756h-.018v-.648h-1.125v4.635h1.206zm8.486.108c.55 0 1.152-.288 1.431-.8h.018c.01.143.01.45.054.692h1.062c-.027-.36-.045-.684-.054-1.035-.009-.342-.018-.693-.018-1.16v-.595c0-1.368-.585-1.953-1.998-1.953-.513 0-1.143.135-1.61.351l.035 1.035c.405-.306.918-.504 1.431-.504.711 0 1.044.252 1.044 1h-.666c-.504 0-1.098.044-1.557.27-.459.224-.792.63-.792 1.322 0 .882.801 1.377 1.62 1.377zm.297-.882c-.432 0-.765-.17-.765-.567 0-.71.801-.8 1.341-.8h.522c0 .36-.054.692-.252.953-.189.252-.477.414-.846.414zm5.597.882c.36 0 .64-.036.891-.108l-.036-.954c-.126.081-.333.126-.549.126-.459 0-.567-.369-.567-.765v-2.16h1.071v-.882h-1.07v-1.314l-1.207.387v.927h-.89v.882h.89v2.358c0 .918.522 1.503 1.467 1.503zm3.221-5.589v-1.152h-1.206v1.152h1.206zm0 5.481v-4.635h-1.206v4.635h1.206zm3.608.108c.495 0 .855-.045 1.206-.153l-.054-.999c-.207.09-.585.216-.927.216-.846 0-1.25-.657-1.25-1.512 0-.873.476-1.467 1.223-1.467.37 0 .603.072.82.171l.107-.954c-.333-.099-.684-.153-1.17-.153-1.449 0-2.24 1.062-2.24 2.403 0 1.413.764 2.448 2.285 2.448zm3.68 0c.55 0 1.152-.288 1.431-.8h.018c.01.143.01.45.054.692h1.062c-.027-.36-.045-.684-.054-1.035-.009-.342-.018-.693-.018-1.16v-.595c0-1.368-.585-1.953-1.998-1.953-.513 0-1.143.135-1.61.351l.035 1.035c.405-.306.918-.504 1.431-.504.711 0 1.044.252 1.044 1h-.666c-.504 0-1.098.044-1.557.27-.459.224-.792.63-.792 1.322 0 .882.801 1.377 1.62 1.377zm.297-.882c-.432 0-.765-.17-.765-.567 0-.71.801-.8 1.341-.8h.522c0 .36-.054.692-.252.953-.189.252-.477.414-.846.414zm8.71.882c.648 0 1.152-.126 1.593-.369v-.98c-.45.251-.954.467-1.539.467-.747 0-1.269-.423-1.323-1.17h3.204c0-1.62-.486-2.799-2.205-2.799-1.44 0-2.15 1.107-2.15 2.448 0 1.521.89 2.403 2.42 2.403zm.783-2.88h-2.052c.054-.62.396-1.089 1.071-1.089.675 0 .945.504.981 1.09zm6.946 2.88c.567 0 1.062-.18 1.422-.63h.018v.522h1.17v-6.75h-1.206v2.655h-.018c-.36-.44-.783-.648-1.386-.648-1.422 0-1.944 1.134-1.944 2.412 0 1.27.522 2.44 1.944 2.44zm.333-.936c-.792 0-1.017-.864-1.017-1.503 0-.62.216-1.476 1-1.476.773 0 1.08.828 1.08 1.476 0 .657-.262 1.503-1.063 1.503zm5.993.936c.648 0 1.152-.126 1.593-.369v-.98c-.45.251-.954.467-1.539.467-.747 0-1.269-.423-1.323-1.17h3.204c0-1.62-.486-2.799-2.205-2.799-1.44 0-2.15 1.107-2.15 2.448 0 1.521.89 2.403 2.42 2.403zm.783-2.88h-2.052c.054-.62.396-1.089 1.071-1.089.675 0 .945.504.981 1.09zm3.68 2.772v-6.75h-1.206v6.75h1.206zm2.852 0v-6.75h-1.206v6.75h1.206zm2.942.108c.55 0 1.152-.288 1.431-.8h.018c.01.143.01.45.054.692h1.062c-.027-.36-.045-.684-.054-1.035-.009-.342-.018-.693-.018-1.16v-.595c0-1.368-.585-1.953-1.998-1.953-.513 0-1.143.135-1.61.351l.035 1.035c.405-.306.918-.504 1.431-.504.711 0 1.044.252 1.044 1h-.666c-.504 0-1.098.044-1.557.27-.459.224-.792.63-.792 1.322 0 .882.801 1.377 1.62 1.377zm.297-.882c-.432 0-.765-.17-.765-.567 0-.71.801-.8 1.341-.8h.522c0 .36-.054.692-.252.953-.189.252-.477.414-.846.414zm8.45.882c.36 0 .638-.036.89-.108l-.036-.954c-.126.081-.333.126-.549.126-.459 0-.567-.369-.567-.765v-2.16h1.071v-.882h-1.07v-1.314l-1.207.387v.927h-.89v.882h.89v2.358c0 .918.522 1.503 1.467 1.503zm4.111 0c.648 0 1.152-.126 1.593-.369v-.98c-.45.251-.954.467-1.539.467-.747 0-1.269-.423-1.323-1.17h3.204c0-1.62-.486-2.799-2.205-2.799-1.44 0-2.15 1.107-2.15 2.448 0 1.521.89 2.403 2.42 2.403zm.783-2.88h-2.052c.054-.62.396-1.089 1.071-1.089.675 0 .945.504.981 1.09zm3.68 2.772v-6.75h-1.206v6.75h1.206zm3.743.108c.648 0 1.152-.126 1.593-.369v-.98c-.45.251-.954.467-1.539.467-.747 0-1.269-.423-1.323-1.17h3.204c0-1.62-.486-2.799-2.205-2.799-1.44 0-2.15 1.107-2.15 2.448 0 1.521.89 2.403 2.42 2.403zm.783-2.88h-2.052c.054-.62.396-1.089 1.071-1.089.675 0 .945.504.981 1.09zm4.436 2.88c.495 0 .855-.045 1.206-.153l-.054-.999c-.207.09-.585.216-.927.216-.846 0-1.25-.657-1.25-1.512 0-.873.476-1.467 1.223-1.467.37 0 .603.072.82.171l.107-.954c-.333-.099-.684-.153-1.17-.153-1.449 0-2.24 1.062-2.24 2.403 0 1.413.764 2.448 2.285 2.448zm4.481 0c1.54 0 2.43-1.062 2.43-2.394 0-1.53-1.053-2.457-2.43-2.457-1.368 0-2.42.927-2.42 2.457 0 1.332.89 2.394 2.42 2.394zm0-.936c-.918 0-1.16-.837-1.16-1.602 0-.693.377-1.377 1.16-1.377.792 0 1.17.666 1.17 1.377 0 .774-.243 1.602-1.17 1.602zm4.913.828v-2.25c0-.603.1-1.557.9-1.557.693 0 .693.612.693 1.044v2.763h1.206v-2.25c0-.603.1-1.557.9-1.557.693 0 .693.612.693 1.044v2.763h1.206v-2.925c0-1.035-.324-1.818-1.467-1.818-.567 0-1.17.261-1.449.82-.26-.577-.72-.82-1.368-.82-.45 0-.999.19-1.377.756h-.018v-.648h-1.125v4.635h1.206zm8.738.108c.63 0 1.152-.288 1.521-.738h.018v.63h1.143v-4.635H258v2.268c0 .594-.189 1.54-1.062 1.54-.728 0-.78-.678-.783-1.23v-2.578h-1.206v2.925c0 1.044.477 1.818 1.575 1.818zm5.48-.108v-2.268c0-.594.19-1.539 1.062-1.539.774 0 .783.765.783 1.332v2.475h1.206v-2.925c0-1.044-.477-1.818-1.575-1.818-.63 0-1.143.207-1.52.738h-.019v-.63h-1.143v4.635h1.206zm5.876-5.48v-1.153h-1.206v1.152h1.206zm0 5.48v-4.635h-1.206v4.635h1.206zm3.608.108c.495 0 .855-.045 1.206-.153l-.054-.999c-.207.09-.585.216-.927.216-.846 0-1.25-.657-1.25-1.512 0-.873.476-1.467 1.223-1.467.37 0 .603.072.82.171l.107-.954c-.333-.099-.684-.153-1.17-.153-1.449 0-2.24 1.062-2.24 2.403 0 1.413.764 2.448 2.285 2.448zm3.68 0c.55 0 1.152-.288 1.431-.8h.018c.01.143.01.45.054.692h1.062c-.027-.36-.045-.684-.054-1.035-.009-.342-.018-.693-.018-1.16v-.595c0-1.368-.585-1.953-1.998-1.953-.513 0-1.143.135-1.61.351l.035 1.035c.405-.306.918-.504 1.431-.504.711 0 1.044.252 1.044 1h-.666c-.504 0-1.098.044-1.557.27-.459.224-.792.63-.792 1.322 0 .882.801 1.377 1.62 1.377zm.297-.882c-.432 0-.765-.17-.765-.567 0-.71.801-.8 1.341-.8h.522c0 .36-.054.692-.252.953-.189.252-.477.414-.846.414zm7.29.774v-.936h-2.386l2.304-2.709v-.99h-3.672v.936h2.25l-2.349 2.718v.981h3.852zm2.527-5.48v-1.153h-1.206v1.152h1.206zm0 5.48v-4.635h-1.206v4.635h1.206zm3.743.108c1.54 0 2.43-1.062 2.43-2.394 0-1.53-1.053-2.457-2.43-2.457-1.368 0-2.42.927-2.42 2.457 0 1.332.89 2.394 2.42 2.394zm0-.936c-.918 0-1.16-.837-1.16-1.602 0-.693.377-1.377 1.16-1.377.792 0 1.17.666 1.17 1.377 0 .774-.243 1.602-1.17 1.602zm4.931.828v-2.268c0-.594.19-1.539 1.062-1.539.774 0 .783.765.783 1.332v2.475h1.206v-2.925c0-1.044-.477-1.818-1.575-1.818-.63 0-1.143.207-1.52.738h-.019v-.63h-1.143v4.635h1.206zm6.767.108c.648 0 1.152-.126 1.593-.369v-.98c-.45.251-.954.467-1.539.467-.747 0-1.269-.423-1.323-1.17h3.204c0-1.62-.486-2.799-2.205-2.799-1.44 0-2.15 1.107-2.15 2.448 0 1.521.89 2.403 2.42 2.403zm.783-2.88h-2.052c.054-.62.396-1.089 1.071-1.089.675 0 .945.504.981 1.09zm7.927 2.88c1.611 0 2.565-.693 2.565-2.376v-4.014h-1.26v3.627c0 1.071-.342 1.773-1.305 1.773-.963 0-1.305-.702-1.305-1.773v-3.627h-1.26v4.014c0 1.683.954 2.376 2.565 2.376zm5.588-.108v-2.754h2.124v-.99h-2.124v-1.548h2.232v-.99h-3.492v6.282h1.26zm4.742 0v-6.282h-1.26v6.282h1.26zm4.103 0v-5.292h1.8v-.99h-4.86v.99h1.8v5.292h1.26zm-285.256 12.9v-2.754h2.124v-.99H38.61v-1.548h2.232v-.99H37.35v6.282h1.26zm5.606.108c.648 0 1.152-.126 1.593-.369v-.98c-.45.251-.954.467-1.539.467-.747 0-1.269-.423-1.323-1.17h3.204c0-1.62-.486-2.799-2.205-2.799-1.44 0-2.15 1.107-2.15 2.448 0 1.521.89 2.403 2.42 2.403zm.783-2.88h-2.052c.054-.62.396-1.089 1.071-1.089.675 0 .945.504.981 1.09zm4.094 2.88c.567 0 1.062-.18 1.422-.63h.018v.522h1.17v-6.75h-1.206v2.655h-.018c-.36-.44-.783-.648-1.386-.648-1.422 0-1.944 1.134-1.944 2.412 0 1.27.522 2.44 1.944 2.44zm.333-.936c-.792 0-1.017-.864-1.017-1.503 0-.62.216-1.476 1-1.476.773 0 1.08.828 1.08 1.476 0 .657-.262 1.503-1.063 1.503zm5.993.936c.648 0 1.152-.126 1.593-.369v-.98c-.45.251-.954.467-1.539.467-.747 0-1.269-.423-1.323-1.17h3.204c0-1.62-.486-2.799-2.205-2.799-1.44 0-2.15 1.107-2.15 2.448 0 1.521.89 2.403 2.42 2.403zm.783-2.88H54.15c.054-.62.396-1.089 1.071-1.089.675 0 .945.504.981 1.09zm3.68 2.772v-1.905c.009-.684.093-1.686.981-1.686.216 0 .432.036.54.1v-1.216c-.126-.036-.252-.036-.369-.036-.72 0-1.215.73-1.269 1.161h-.018v-1.053h-1.07v4.635h1.205zm3.941.108c.55 0 1.152-.288 1.431-.8h.018c.01.143.01.45.054.692h1.062c-.027-.36-.045-.684-.054-1.035-.009-.342-.018-.693-.018-1.16v-.595c0-1.368-.585-1.953-1.998-1.953-.513 0-1.143.135-1.61.351l.035 1.035c.405-.306.918-.504 1.431-.504.711 0 1.044.252 1.044 1h-.666c-.504 0-1.098.044-1.557.27-.459.224-.792.63-.792 1.322 0 .882.801 1.377 1.62 1.377zm.297-.882c-.432 0-.765-.17-.765-.567 0-.71.801-.8 1.341-.8h.522c0 .36-.054.692-.252.953-.189.252-.477.414-.846.414zm4.967.774v-6.75h-1.206v6.75h1.206zm7.351.108c1.99 0 3.078-1.368 3.078-3.267 0-1.899-1.107-3.23-3.078-3.23-1.998 0-3.078 1.304-3.078 3.23s1.062 3.267 3.078 3.267zm0-.99c-1.287 0-1.764-1.143-1.764-2.277 0-1.107.513-2.24 1.764-2.24s1.764 1.133 1.764 2.24c0 1.134-.477 2.277-1.764 2.277zm6.12.882v-3.753h1.052v-.882h-1.053v-.576c0-.36.126-.71.531-.71.261 0 .414.098.522.161l.1-.999c-.235-.054-.577-.099-.883-.099-.954 0-1.476.648-1.476 1.575v.648h-.89v.882h.89v3.753h1.206zm3.688 0v-3.753H87.3v-.882h-1.053v-.576c0-.36.126-.71.531-.71.261 0 .414.098.522.161l.1-.999c-.235-.054-.577-.099-.883-.099-.954 0-1.476.648-1.476 1.575v.648h-.89v.882h.89v3.753h1.206zm3.087-5.48v-1.153h-1.206v1.152h1.206zm0 5.48v-4.635h-1.206v4.635h1.206zm3.608.108c.495 0 .855-.045 1.206-.153l-.054-.999c-.207.09-.585.216-.927.216-.846 0-1.25-.657-1.25-1.512 0-.873.476-1.467 1.223-1.467.37 0 .603.072.82.171l.107-.954c-.333-.099-.684-.153-1.17-.153-1.449 0-2.24 1.062-2.24 2.403 0 1.413.764 2.448 2.285 2.448zm4.481 0c.648 0 1.152-.126 1.593-.369v-.98c-.45.251-.954.467-1.539.467-.747 0-1.269-.423-1.323-1.17h3.204c0-1.62-.486-2.799-2.205-2.799-1.44 0-2.15 1.107-2.15 2.448 0 1.521.89 2.403 2.42 2.403zm.783-2.88h-2.052c.054-.62.396-1.089 1.071-1.089.675 0 .945.504.981 1.09zm7.423 2.88c1.54 0 2.43-1.062 2.43-2.394 0-1.53-1.053-2.457-2.43-2.457-1.368 0-2.42.927-2.42 2.457 0 1.332.89 2.394 2.42 2.394zm0-.936c-.918 0-1.16-.837-1.16-1.602 0-.693.377-1.377 1.16-1.377.792 0 1.17.666 1.17 1.377 0 .774-.243 1.602-1.17 1.602zm5.372.828v-3.753h1.053v-.882H111v-.576c0-.36.126-.71.531-.71.261 0 .414.098.522.161l.1-.999c-.235-.054-.577-.099-.883-.099-.954 0-1.476.648-1.476 1.575v.648h-.89v.882h.89v3.753H111zm6.316 0v-6.282h-1.26v6.282h1.26zm2.798 0v-2.268c0-.594.19-1.539 1.062-1.539.774 0 .783.765.783 1.332v2.475h1.206v-2.925c0-1.044-.477-1.818-1.575-1.818-.63 0-1.143.207-1.52.738h-.019v-.63h-1.143v4.635h1.206zm6.29 0v-3.753h1.053v-.882h-1.053v-.576c0-.36.126-.71.531-.71.261 0 .414.098.522.161l.1-.999c-.235-.054-.577-.099-.883-.099-.954 0-1.476.648-1.476 1.575v.648h-.89v.882h.89v3.753h1.206zm4.328.108c1.54 0 2.43-1.062 2.43-2.394 0-1.53-1.053-2.457-2.43-2.457-1.368 0-2.42.927-2.42 2.457 0 1.332.89 2.394 2.42 2.394zm0-.936c-.918 0-1.16-.837-1.16-1.602 0-.693.377-1.377 1.16-1.377.792 0 1.17.666 1.17 1.377 0 .774-.243 1.602-1.17 1.602zm4.958.828v-1.905c.009-.684.093-1.686.981-1.686.216 0 .432.036.54.1v-1.216c-.126-.036-.252-.036-.369-.036-.72 0-1.215.73-1.269 1.161h-.018v-1.053h-1.07v4.635h1.205zm3.806 0v-2.25c0-.603.1-1.557.9-1.557.693 0 .693.612.693 1.044v2.763h1.206v-2.25c0-.603.1-1.557.9-1.557.693 0 .693.612.693 1.044v2.763h1.206v-2.925c0-1.035-.324-1.818-1.467-1.818-.567 0-1.17.261-1.449.82-.26-.577-.72-.82-1.368-.82-.45 0-.999.19-1.377.756h-.018v-.648h-1.125v4.635h1.206zm8.486.108c.55 0 1.152-.288 1.431-.8h.018c.01.143.01.45.054.692h1.062c-.027-.36-.045-.684-.054-1.035-.009-.342-.018-.693-.018-1.16v-.595c0-1.368-.585-1.953-1.998-1.953-.513 0-1.143.135-1.61.351l.035 1.035c.405-.306.918-.504 1.431-.504.711 0 1.044.252 1.044 1h-.666c-.504 0-1.098.044-1.557.27-.459.224-.792.63-.792 1.322 0 .882.801 1.377 1.62 1.377zm.297-.882c-.432 0-.765-.17-.765-.567 0-.71.801-.8 1.341-.8h.522c0 .36-.054.692-.252.953-.189.252-.477.414-.846.414zm5.597.882c.36 0 .64-.036.891-.108l-.036-.954c-.126.081-.333.126-.549.126-.459 0-.567-.369-.567-.765v-2.16h1.071v-.882h-1.07v-1.314l-1.207.387v.927h-.89v.882h.89v2.358c0 .918.522 1.503 1.467 1.503zm3.221-5.589v-1.152h-1.206v1.152h1.206zm0 5.481v-4.635h-1.206v4.635h1.206zm3.743.108c1.54 0 2.43-1.062 2.43-2.394 0-1.53-1.053-2.457-2.43-2.457-1.368 0-2.42.927-2.42 2.457 0 1.332.89 2.394 2.42 2.394zm0-.936c-.918 0-1.16-.837-1.16-1.602 0-.693.377-1.377 1.16-1.377.792 0 1.17.666 1.17 1.377 0 .774-.243 1.602-1.17 1.602zm4.931.828v-2.268c0-.594.19-1.539 1.062-1.539.774 0 .783.765.783 1.332v2.475h1.206v-2.925c0-1.044-.477-1.818-1.575-1.818-.63 0-1.143.207-1.52.738h-.019v-.63h-1.143v4.635h1.206zm10.006 0v-5.292h1.8v-.99h-4.86v.99h1.8v5.292h1.26zm3.968.108c.648 0 1.152-.126 1.593-.369v-.98c-.45.251-.954.467-1.539.467-.747 0-1.269-.423-1.323-1.17h3.204c0-1.62-.486-2.799-2.205-2.799-1.44 0-2.15 1.107-2.15 2.448 0 1.521.89 2.403 2.42 2.403zm.783-2.88h-2.052c.054-.62.396-1.089 1.071-1.089.675 0 .945.504.981 1.09zm4.436 2.88c.495 0 .855-.045 1.206-.153l-.054-.999c-.207.09-.585.216-.927.216-.846 0-1.25-.657-1.25-1.512 0-.873.476-1.467 1.223-1.467.37 0 .603.072.82.171l.107-.954c-.333-.099-.684-.153-1.17-.153-1.449 0-2.24 1.062-2.24 2.403 0 1.413.764 2.448 2.285 2.448zm3.563-.108v-2.268c0-.594.19-1.539 1.062-1.539.774 0 .783.765.783 1.332v2.475h1.206v-2.925c0-1.044-.477-1.818-1.575-1.818-.63 0-1.152.288-1.458.738h-.018v-2.745h-1.206v6.75h1.206zm5.85 0v-2.268c0-.594.188-1.539 1.061-1.539.774 0 .783.765.783 1.332v2.475h1.206v-2.925c0-1.044-.477-1.818-1.575-1.818-.63 0-1.143.207-1.52.738h-.019v-.63h-1.143v4.635h1.206zm6.766.108c1.54 0 2.43-1.062 2.43-2.394 0-1.53-1.053-2.457-2.43-2.457-1.368 0-2.42.927-2.42 2.457 0 1.332.89 2.394 2.42 2.394zm0-.936c-.918 0-1.16-.837-1.16-1.602 0-.693.377-1.377 1.16-1.377.792 0 1.17.666 1.17 1.377 0 .774-.243 1.602-1.17 1.602zm4.958.828v-6.75h-1.206v6.75h1.206zm3.743.108c1.54 0 2.43-1.062 2.43-2.394 0-1.53-1.053-2.457-2.43-2.457-1.368 0-2.42.927-2.42 2.457 0 1.332.89 2.394 2.42 2.394zm0-.936c-.918 0-1.16-.837-1.16-1.602 0-.693.377-1.377 1.16-1.377.792 0 1.17.666 1.17 1.377 0 .774-.243 1.602-1.17 1.602zm5.534 2.826c1.944 0 2.448-1.188 2.448-2.448v-4.185h-1.152v.63h-.018c-.333-.53-.81-.738-1.422-.738-1.386 0-1.962 1.287-1.962 2.403 0 1.242.522 2.34 1.89 2.34.675 0 1.215-.342 1.44-.738h.018c0 .801-.063 1.8-1.395 1.8-.378 0-.98-.207-1.35-.405l-.099 1.026c.576.243 1.125.315 1.602.315zm.18-2.934c-.693 0-1.026-.774-1.026-1.404 0-.71.261-1.467 1.08-1.467.702 0 1.008.648 1.008 1.44 0 .774-.306 1.431-1.062 1.431zm4.481 2.934c1.26 0 1.54-1.008 1.926-2.034l1.737-4.599h-1.224l-1.116 3.384h-.018l-1.116-3.384h-1.332l1.773 4.87c0 .494-.297.827-.783.827-.297 0-.468-.027-.62-.08l-.082.89c.28.081.567.126.855.126zm4.553-1.008l.82-2.25h-1.306l-.576 2.25h1.062zM38.853 150.994c1.27 0 2.358-.522 2.358-1.899 0-2.106-2.754-1.647-2.754-2.736 0-.684.558-.873.99-.873.441 0 .882.1 1.278.27l.117-1.035c-.459-.153-.963-.225-1.503-.225-1.107 0-2.196.513-2.196 1.917 0 2.08 2.754 1.584 2.754 2.781 0 .567-.639.81-1.116.81-.495 0-.99-.153-1.422-.387l-.117 1.134c.621.153.927.243 1.611.243zm4.364 1.89c1.26 0 1.54-1.008 1.926-2.034l1.737-4.599h-1.224l-1.116 3.384h-.018l-1.116-3.384h-1.332l1.773 4.87c0 .494-.297.827-.783.827-.297 0-.468-.027-.62-.08l-.082.89c.28.081.567.126.855.126zm5.85-1.89c.98 0 1.943-.432 1.943-1.512 0-1.674-2.097-1.206-2.097-1.944 0-.396.387-.513.711-.513.441 0 .711.072 1.08.198l.081-.909c-.378-.08-.747-.17-1.314-.17-.945 0-1.818.44-1.818 1.44 0 1.673 2.097 1.052 2.097 1.961 0 .45-.486.567-.792.567-.414 0-.81-.117-1.188-.306l-.072.99c.441.117.91.198 1.368.198zm5.092 0c.36 0 .64-.036.891-.108l-.036-.954c-.126.081-.333.126-.549.126-.459 0-.567-.369-.567-.765v-2.16h1.071v-.882H53.9v-1.314l-1.207.387v.927h-.89v.882h.89v2.358c0 .918.522 1.503 1.467 1.503zm4.112 0c.648 0 1.152-.126 1.593-.369v-.98c-.45.251-.954.467-1.539.467-.747 0-1.269-.423-1.323-1.17h3.204c0-1.62-.486-2.799-2.205-2.799-1.44 0-2.15 1.107-2.15 2.448 0 1.521.89 2.403 2.42 2.403zm.783-2.88h-2.052c.054-.62.396-1.089 1.071-1.089.675 0 .945.504.981 1.09zm3.635 2.772v-2.25c0-.603.1-1.557.9-1.557.693 0 .693.612.693 1.044v2.763h1.206v-2.25c0-.603.1-1.557.9-1.557.693 0 .693.612.693 1.044v2.763h1.206v-2.925c0-1.035-.324-1.818-1.467-1.818-.567 0-1.17.261-1.449.82-.26-.577-.72-.82-1.368-.82-.45 0-.999.19-1.377.756h-.018v-.648h-1.125v4.635h1.206zm8.28.108c.98 0 1.943-.432 1.943-1.512 0-1.674-2.097-1.206-2.097-1.944 0-.396.387-.513.711-.513.441 0 .711.072 1.08.198l.081-.909c-.378-.08-.747-.17-1.314-.17-.945 0-1.818.44-1.818 1.44 0 1.673 2.097 1.052 2.097 1.961 0 .45-.486.567-.792.567-.414 0-.81-.117-1.188-.306l-.072.99c.441.117.91.198 1.368.198zm7.404 0c.55 0 1.152-.288 1.431-.8h.018c.01.143.01.45.054.692h1.062c-.027-.36-.045-.684-.054-1.035-.009-.342-.018-.693-.018-1.16v-.595c0-1.368-.585-1.953-1.998-1.953-.513 0-1.143.135-1.61.351l.035 1.035c.405-.306.918-.504 1.431-.504.711 0 1.044.252 1.044 1h-.666c-.504 0-1.098.044-1.557.27-.459.224-.792.63-.792 1.322 0 .882.801 1.377 1.62 1.377zm.297-.882c-.432 0-.765-.17-.765-.567 0-.71.801-.8 1.341-.8h.522c0 .36-.054.692-.252.953-.189.252-.477.414-.846.414zm4.94.774v-2.268c0-.594.19-1.539 1.062-1.539.774 0 .783.765.783 1.332v2.475h1.206v-2.925c0-1.044-.477-1.818-1.575-1.818-.63 0-1.143.207-1.52.738h-.019v-.63h-1.143v4.635h1.206zm6.29.108c.567 0 1.062-.18 1.422-.63h.018v.522h1.17v-6.75h-1.206v2.655h-.018c-.36-.44-.783-.648-1.386-.648-1.422 0-1.944 1.134-1.944 2.412 0 1.27.522 2.44 1.944 2.44zm.333-.936c-.792 0-1.017-.864-1.017-1.503 0-.62.216-1.476 1-1.476.773 0 1.08.828 1.08 1.476 0 .657-.262 1.503-1.063 1.503zm9.232.828v-5.292h1.8v-.99h-4.86v.99h1.8v5.292h1.26zm3.968.108c.648 0 1.152-.126 1.593-.369v-.98c-.45.251-.954.467-1.539.467-.747 0-1.269-.423-1.323-1.17h3.204c0-1.62-.486-2.799-2.205-2.799-1.44 0-2.15 1.107-2.15 2.448 0 1.521.89 2.403 2.42 2.403zm.783-2.88h-2.052c.054-.62.396-1.089 1.071-1.089.675 0 .945.504.981 1.09zm3.68 2.772v-6.75h-1.206v6.75h1.206zm3.743.108c.648 0 1.152-.126 1.593-.369v-.98c-.45.251-.954.467-1.539.467-.747 0-1.269-.423-1.323-1.17h3.204c0-1.62-.486-2.799-2.205-2.799-1.44 0-2.15 1.107-2.15 2.448 0 1.521.89 2.403 2.42 2.403zm.783-2.88h-2.052c.054-.62.396-1.089 1.071-1.089.675 0 .945.504.981 1.09zm4.436 2.88c.495 0 .855-.045 1.206-.153l-.054-.999c-.207.09-.585.216-.927.216-.846 0-1.25-.657-1.25-1.512 0-.873.476-1.467 1.223-1.467.37 0 .603.072.82.171l.107-.954c-.333-.099-.684-.153-1.17-.153-1.449 0-2.24 1.062-2.24 2.403 0 1.413.764 2.448 2.285 2.448zm4.481 0c1.54 0 2.43-1.062 2.43-2.394 0-1.53-1.053-2.457-2.43-2.457-1.368 0-2.42.927-2.42 2.457 0 1.332.89 2.394 2.42 2.394zm0-.936c-.918 0-1.16-.837-1.16-1.602 0-.693.377-1.377 1.16-1.377.792 0 1.17.666 1.17 1.377 0 .774-.243 1.602-1.17 1.602zm4.913.828v-2.25c0-.603.1-1.557.9-1.557.693 0 .693.612.693 1.044v2.763h1.206v-2.25c0-.603.1-1.557.9-1.557.693 0 .693.612.693 1.044v2.763h1.206v-2.925c0-1.035-.324-1.818-1.467-1.818-.567 0-1.17.261-1.449.82-.26-.577-.72-.82-1.368-.82-.45 0-.999.19-1.377.756h-.018v-.648h-1.125v4.635h1.206zm8.351 0v-2.25c0-.603.1-1.557.9-1.557.693 0 .693.612.693 1.044v2.763h1.206v-2.25c0-.603.1-1.557.9-1.557.693 0 .693.612.693 1.044v2.763h1.206v-2.925c0-1.035-.324-1.818-1.467-1.818-.567 0-1.17.261-1.449.82-.26-.577-.72-.82-1.368-.82-.45 0-.999.19-1.377.756h-.018v-.648h-1.125v4.635h1.206zm8.738.108c.63 0 1.152-.288 1.521-.738h.018v.63h1.143v-4.635h-1.206v2.268c0 .594-.189 1.54-1.062 1.54-.728 0-.78-.678-.783-1.23v-2.578h-1.206v2.925c0 1.044.477 1.818 1.575 1.818zm5.48-.108v-2.268c0-.594.19-1.539 1.062-1.539.774 0 .783.765.783 1.332v2.475h1.206v-2.925c0-1.044-.477-1.818-1.575-1.818-.63 0-1.143.207-1.52.738h-.019v-.63h-1.143v4.635h1.206zm5.876-5.48v-1.153h-1.206v1.152h1.206zm0 5.48v-4.635h-1.206v4.635h1.206zm3.608.108c.495 0 .855-.045 1.206-.153l-.054-.999c-.207.09-.585.216-.927.216-.846 0-1.25-.657-1.25-1.512 0-.873.476-1.467 1.223-1.467.37 0 .603.072.82.171l.107-.954c-.333-.099-.684-.153-1.17-.153-1.449 0-2.24 1.062-2.24 2.403 0 1.413.764 2.448 2.285 2.448zm3.68 0c.55 0 1.152-.288 1.431-.8h.018c.01.143.01.45.054.692h1.062c-.027-.36-.045-.684-.054-1.035-.009-.342-.018-.693-.018-1.16v-.595c0-1.368-.585-1.953-1.998-1.953-.513 0-1.143.135-1.61.351l.035 1.035c.405-.306.918-.504 1.431-.504.711 0 1.044.252 1.044 1h-.666c-.504 0-1.098.044-1.557.27-.459.224-.792.63-.792 1.322 0 .882.801 1.377 1.62 1.377zm.297-.882c-.432 0-.765-.17-.765-.567 0-.71.801-.8 1.341-.8h.522c0 .36-.054.692-.252.953-.189.252-.477.414-.846.414zm5.597.882c.36 0 .64-.036.891-.108l-.036-.954c-.126.081-.333.126-.549.126-.459 0-.567-.369-.567-.765v-2.16h1.071v-.882h-1.07v-1.314l-1.207.387v.927h-.89v.882h.89v2.358c0 .918.522 1.503 1.467 1.503zm3.221-5.589v-1.152h-1.206v1.152h1.206zm0 5.481v-4.635h-1.206v4.635h1.206zm3.743.108c1.54 0 2.43-1.062 2.43-2.394 0-1.53-1.053-2.457-2.43-2.457-1.368 0-2.42.927-2.42 2.457 0 1.332.89 2.394 2.42 2.394zm0-.936c-.918 0-1.16-.837-1.16-1.602 0-.693.377-1.377 1.16-1.377.792 0 1.17.666 1.17 1.377 0 .774-.243 1.602-1.17 1.602zm4.931.828v-2.268c0-.594.19-1.539 1.062-1.539.774 0 .783.765.783 1.332v2.475h1.206v-2.925c0-1.044-.477-1.818-1.575-1.818-.63 0-1.143.207-1.52.738h-.019v-.63h-1.143v4.635h1.206zm8.863 0v-2.754h2.124v-.99h-2.124v-1.548h2.232v-.99h-3.492v6.282h1.26zm6.362.108c1.99 0 3.078-1.368 3.078-3.267 0-1.899-1.107-3.23-3.078-3.23-1.998 0-3.078 1.304-3.078 3.23s1.062 3.267 3.078 3.267zm0-.99c-1.287 0-1.764-1.143-1.764-2.277 0-1.107.513-2.24 1.764-2.24s1.764 1.133 1.764 2.24c0 1.134-.477 2.277-1.764 2.277zm5.732.882v-6.282h-1.26v6.282h1.26zm4.103 0v-5.292h1.8v-.99h-4.86v.99h1.8v5.292h1.26zm5.354 0v-5.292h1.8v-.99h-4.86v.99h1.8v5.292h1.26z" transform="translate(-20 -770) translate(20 770)"/>
            </g>
        </g>
    </g>
</svg>
